<svg width="616" height="309" viewBox="0 0 616 309" fill="none" xmlns="http://www.w3.org/2000/svg">
<path d="M48.4938 295.864H32.2625C32.2625 295.864 7.1952 254.058 16.0791 217.996C16.0791 217.996 56.6692 230.226 48.4938 295.864Z" fill="#8FA6D1"/>
<path d="M17.171 237.889C18.4729 238.492 19.66 239.516 20.8088 240.373C21.9097 241.196 22.9915 242.039 24.0589 242.91C25.6049 244.174 27.1079 245.49 28.5678 246.849C27.5004 243.973 26.3851 241.115 25.2172 238.281C23.0298 232.978 20.7274 227.674 18.1427 222.553C17.9943 222.261 18.4346 222.002 18.583 222.294C22.7521 230.422 26.5335 238.664 29.7405 247.208C29.4916 241.431 30.5255 235.601 29.3624 229.886C29.3002 229.579 29.7597 229.445 29.8363 229.757C31.411 236.118 30.0947 242.661 30.7409 249.109C30.7553 249.267 30.6787 249.381 30.5686 249.453C30.5973 249.53 30.626 249.606 30.6548 249.688C32.6316 255.183 34.3979 260.745 35.9535 266.369C37.3464 259.117 37.983 251.794 38.3564 244.413C38.3659 244.231 38.634 244.231 38.6388 244.413C38.9834 252.378 38.0405 260.41 36.4513 268.212C37.4038 271.768 38.2702 275.344 39.0504 278.943C39.3711 280.413 39.6823 281.892 39.9838 283.376C42.4776 277.177 43.995 270.596 44.8661 263.985C44.89 263.794 45.1868 263.78 45.1772 263.985C44.756 271.184 42.9515 278.144 40.271 284.821C40.9746 288.382 41.5873 291.972 41.9894 295.562C42.0516 296.113 41.1086 296.247 41.0129 295.696C40.4002 292.169 39.845 288.641 39.2036 285.123C37.0113 283.079 34.9005 280.935 32.78 278.814C31.6791 277.713 30.5925 276.608 29.506 275.492C28.5056 274.468 27.3951 273.482 26.5622 272.314C26.3038 271.955 26.8303 271.658 27.1223 271.883C28.3381 272.826 29.3576 274.071 30.4346 275.167C31.4733 276.225 32.5167 277.282 33.565 278.335C35.3408 280.121 37.1549 281.873 38.9355 283.653C38.768 282.768 38.5957 281.882 38.409 281.002C37.5283 276.77 36.5231 272.563 35.4126 268.384C30.9946 264.253 26.1841 260.721 21.072 257.504C20.603 257.208 21.0242 256.475 21.5076 256.758C26.3468 259.567 30.8606 263.033 34.9866 266.824C34.9579 266.714 34.9292 266.608 34.9005 266.498C33.2539 260.486 31.3584 254.546 29.2427 248.687C27.4238 246.94 25.5475 245.255 23.5946 243.662C22.4362 242.714 21.2491 241.79 20.0429 240.9C18.9564 240.096 17.7167 239.392 16.7354 238.463C16.4195 238.162 16.8216 237.726 17.1758 237.894L17.171 237.889Z" fill="#CBE0F4"/>
<path d="M79.5628 295.637C81.4679 289.621 73.5126 282.675 70.1045 277.367C65.2462 269.795 62.5609 260.848 62.4508 251.854C62.3455 243.382 64.375 234.398 60.7085 226.758C58.0998 221.316 53.0021 217.53 49.5031 212.619C46.0712 207.804 44.2235 201.878 44.3193 195.962C44.415 189.863 46.4541 183.435 43.9459 177.873C40.6097 170.468 30.7015 168.008 26.9296 160.819C25.2304 157.583 25.0006 153.754 23.4785 150.432C20.6209 144.195 13.8862 140.873 7.64452 138.025C5.01669 136.828 0.0290774 141.567 0.56996 144.405C1.11084 147.244 3.27438 149.436 5.06455 151.7C8.32421 155.826 10.6313 160.905 10.5595 166.165C10.5165 169.511 9.53043 172.766 9.09964 176.083C8.25241 182.621 9.64531 189.423 12.9911 195.105C16.0545 200.303 20.664 204.534 23.1961 210.015C26.2691 216.668 25.9149 224.379 24.8188 231.626C24.2252 235.556 23.4594 239.744 25.0964 243.363C26.3217 246.072 28.7102 248.03 30.6584 250.28C41.2846 262.538 38.001 282.096 46.9327 295.642H79.5676L79.5628 295.637Z" fill="#E5A1A1"/>
<path d="M53.7099 277.458C52.0441 274.572 51.8575 271.451 51.5894 268.201C51.3644 265.525 50.8475 263.003 49.804 260.519C47.8798 255.933 44.8212 251.831 43.4283 247.02C42.7534 244.689 42.6768 242.33 42.7677 239.965C43.5432 238.744 45.4865 237.701 46.4008 236.868C47.3964 235.954 48.2723 234.901 49.0142 233.766C50.5268 231.464 51.3405 228.87 51.6229 226.146C51.6947 225.476 50.6417 225.481 50.5747 226.146C50.1774 229.961 48.4973 233.513 45.6588 236.126C44.8356 236.887 43.7346 237.49 42.8539 238.237C43.0214 235.451 43.2751 232.656 42.9257 229.875C42.2364 224.456 38.9385 219.861 38.5077 214.347C38.2875 211.552 38.455 208.747 38.5412 205.947C38.5699 205.928 38.6034 205.923 38.6321 205.899C40.2213 204.54 41.6238 203.008 42.8635 201.323C43.2656 200.777 42.3561 200.256 41.9588 200.792C40.9584 202.151 39.8192 203.395 38.5795 204.535C38.613 202.424 38.5556 200.318 38.2061 198.221C37.4786 193.865 35.0326 190.419 32.893 186.733C32.9026 186.652 32.893 186.566 32.85 186.48C32.6346 186.006 32.3569 185.585 32.0362 185.207C31.8735 184.9 31.7108 184.594 31.5576 184.283C29.0207 179.185 28.408 173.427 26.6992 168.051C23.5496 158.143 16.2405 150.738 9.05111 143.592C8.85486 143.396 8.55331 143.697 8.74477 143.898C12.8325 148.187 16.9633 152.586 20.3139 157.483C23.7794 162.547 25.785 167.908 27.1779 173.853C27.9916 177.318 28.9106 180.578 30.2556 183.727C27.9054 182.291 24.7319 181.703 22.511 180.626C18.7008 178.783 15.9198 175.619 14.1727 171.809C14.0866 171.617 13.7755 171.756 13.8377 171.952C14.9434 175.471 17.3415 178.553 20.4097 180.597C22.2668 181.832 24.3203 182.507 26.4024 183.258C28.5133 184.019 30.0833 184.962 31.5767 186.485C31.9262 187.14 32.2947 187.791 32.692 188.442C34.1088 190.754 35.6118 193.061 36.459 195.656C37.3398 198.35 37.5025 201.189 37.4786 204.003C37.4738 204.607 37.4594 205.21 37.4403 205.813C34.8986 203.496 30.9928 203.534 27.8624 202.352C23.8225 200.83 20.9936 197.163 18.4232 193.87C18.2653 193.664 17.9302 193.932 18.069 194.143C20.1272 197.364 22.2908 200.648 25.6605 202.644C29.4132 204.865 34.2764 204.19 37.3829 207.55C37.244 211.571 37.1244 215.611 38.3306 219.502C39.1108 222.02 40.3075 224.38 41.0972 226.893C41.9828 229.712 42.0306 232.584 41.8535 235.509C41.7626 237.007 41.6333 238.505 41.5663 240.008C41.5041 240.185 41.461 240.377 41.4323 240.578C39.0342 238.725 36.4016 237.184 34.1136 235.193C31.4427 232.871 28.9441 229.334 29.4563 225.605C29.4994 225.299 29.0351 225.155 28.9776 225.471C27.4555 233.819 36.2293 237.667 41.5328 242.1C41.5424 242.732 41.5711 243.359 41.6381 243.99C41.8631 246.221 42.5093 248.351 43.3804 250.409C44.7398 253.611 46.6066 256.598 48.0426 259.767C46.3864 258.68 44.309 258.068 42.6768 257.106C39.4124 255.186 37.7418 252.247 36.2054 248.93C36.0761 248.653 35.5735 248.782 35.607 249.093C35.9756 252.266 38.1343 255.22 40.5707 257.173C43.256 259.331 46.6927 259.992 49.086 262.548C49.1147 262.582 49.1483 262.605 49.177 262.629C49.3014 263.003 49.4163 263.376 49.5216 263.754C50.4598 267.196 50.297 270.733 51.0294 274.112C49.5264 273.078 47.6405 272.648 45.9843 271.911C43.323 270.728 41.1547 268.464 40.1303 265.731C39.9724 265.315 39.3071 265.482 39.4507 265.918C40.2404 268.345 41.595 270.412 43.6963 271.901C46.0801 273.595 49.1243 273.93 51.2879 275.974C51.3884 276.07 51.4937 276.118 51.599 276.142C51.867 276.898 52.2021 277.64 52.6329 278.368C54.8156 282.077 58.4151 285.303 58.4725 289.894C58.4821 290.731 59.7027 290.712 59.7601 289.894C60.1191 284.978 55.9978 281.402 53.729 277.477L53.7099 277.458Z" fill="#E5D1D7"/>
<path d="M399.423 297.263L415.645 296.66C415.645 296.66 439.142 253.949 428.928 218.246C428.928 218.246 388.821 231.974 399.423 297.263Z" fill="#8FA6D1"/>
<path d="M428.567 238.168C427.289 238.819 426.14 239.886 425.025 240.786C423.957 241.648 422.904 242.533 421.871 243.443C420.372 244.764 418.917 246.138 417.51 247.55C418.467 244.635 419.477 241.739 420.545 238.862C422.531 233.482 424.637 228.097 427.03 222.88C427.164 222.583 426.719 222.339 426.58 222.64C422.718 230.921 419.243 239.298 416.356 247.952C416.39 242.17 415.141 236.383 416.088 230.629C416.141 230.323 415.677 230.203 415.61 230.514C414.269 236.928 415.83 243.419 415.423 249.886C415.413 250.044 415.495 250.159 415.61 250.226C415.586 250.302 415.557 250.383 415.533 250.46C413.762 256.022 412.202 261.651 410.857 267.328C409.196 260.129 408.286 252.839 407.64 245.477C407.626 245.295 407.358 245.305 407.358 245.487C407.31 253.461 408.549 261.45 410.426 269.185C409.607 272.775 408.87 276.384 408.224 280.008C407.961 281.491 407.702 282.98 407.453 284.469C404.73 278.366 402.968 271.846 401.853 265.27C401.82 265.078 401.523 265.078 401.542 265.279C402.231 272.459 404.294 279.347 407.214 285.919C406.644 289.504 406.166 293.113 405.893 296.718C405.85 297.273 406.798 297.369 406.874 296.813C407.358 293.266 407.784 289.72 408.291 286.182C410.407 284.057 412.436 281.841 414.475 279.639C415.533 278.5 416.581 277.351 417.625 276.197C418.587 275.14 419.659 274.111 420.449 272.914C420.693 272.545 420.157 272.268 419.874 272.502C418.697 273.488 417.721 274.771 416.687 275.906C415.686 277.002 414.681 278.098 413.676 279.184C411.967 281.037 410.22 282.856 408.506 284.698C408.64 283.808 408.779 282.918 408.932 282.028C409.655 277.763 410.507 273.522 411.46 269.305C415.72 265.016 420.396 261.306 425.384 257.898C425.843 257.587 425.393 256.869 424.92 257.166C420.186 260.153 415.806 263.781 411.823 267.725C411.847 267.615 411.871 267.51 411.9 267.4C413.322 261.33 414.997 255.328 416.897 249.393C418.649 247.579 420.463 245.827 422.359 244.156C423.484 243.165 424.632 242.203 425.805 241.265C426.863 240.423 428.074 239.671 429.022 238.709C429.328 238.398 428.912 237.977 428.562 238.154L428.567 238.168Z" fill="#CBE0F4"/>
<path d="M368.37 298.191C366.244 292.25 373.936 285.013 377.143 279.58C381.715 271.836 384.065 262.794 383.845 253.805C383.634 245.332 381.274 236.434 384.654 228.661C387.056 223.128 392.011 219.15 395.328 214.114C398.583 209.175 400.205 203.182 399.889 197.28C399.564 191.187 397.295 184.84 399.592 179.191C402.656 171.672 412.464 168.843 415.963 161.515C417.537 158.217 417.628 154.383 419.026 151.003C421.649 144.666 428.259 141.095 434.386 138.017C436.966 136.72 442.131 141.272 441.695 144.13C441.26 146.987 439.177 149.256 437.473 151.587C434.367 155.833 432.256 160.993 432.519 166.249C432.687 169.59 433.793 172.806 434.348 176.104C435.439 182.604 434.3 189.459 431.165 195.255C428.298 200.564 423.846 204.967 421.52 210.534C418.696 217.297 419.337 224.989 420.701 232.193C421.443 236.099 422.357 240.254 420.859 243.935C419.734 246.687 417.418 248.736 415.556 251.052C405.394 263.699 409.4 283.118 400.976 296.984L368.365 298.195L368.37 298.191Z" fill="#E5A1A1"/>
<path d="M422.458 157.931C425.622 152.91 429.59 148.362 433.515 143.925C433.697 143.719 433.391 143.427 433.199 143.633C426.278 151.043 419.246 158.716 416.47 168.734C414.962 174.172 414.56 179.949 412.22 185.133C412.076 185.449 411.928 185.765 411.774 186.076C411.468 186.468 411.21 186.899 411.009 187.378C410.975 187.464 410.965 187.55 410.975 187.631C408.974 191.394 406.653 194.926 406.093 199.306C405.399 204.676 406.605 210.052 406.385 215.432C406.155 220.96 403.034 225.675 402.546 231.113C402.029 236.857 404.097 242.567 402.675 248.268C401.464 253.126 398.559 257.338 396.807 261.996C395.859 264.518 395.433 267.055 395.309 269.74C395.16 272.995 395.088 276.126 393.533 279.069C391.412 283.076 387.425 286.805 387.966 291.701C388.057 292.515 389.273 292.491 389.254 291.653C389.143 287.068 392.618 283.708 394.662 279.921C395.064 279.175 395.371 278.423 395.615 277.657C395.72 277.633 395.825 277.576 395.921 277.48C398.008 275.36 401.038 274.91 403.36 273.129C405.403 271.564 406.681 269.444 407.38 266.993C407.505 266.552 406.835 266.409 406.696 266.83C405.772 269.602 403.69 271.942 401.072 273.225C399.444 274.024 397.577 274.527 396.113 275.613C396.721 272.21 396.424 268.678 397.233 265.207C397.324 264.825 397.424 264.446 397.534 264.068C397.563 264.044 397.597 264.016 397.625 263.982C399.918 261.34 403.331 260.55 405.935 258.296C408.295 256.252 410.338 253.222 410.592 250.034C410.616 249.723 410.109 249.608 409.989 249.895C408.572 253.27 407.012 256.266 403.824 258.305C402.225 259.33 400.172 260.019 398.559 261.163C399.875 257.941 401.632 254.888 402.871 251.638C403.666 249.551 404.231 247.397 404.374 245.161C404.413 244.529 404.422 243.898 404.408 243.271C409.544 238.647 418.164 234.473 416.336 226.187C416.264 225.871 415.809 226.029 415.862 226.336C416.513 230.041 414.144 233.669 411.564 236.086C409.319 238.192 406.701 239.848 404.346 241.82C404.236 240.107 404.011 238.398 403.843 236.689C403.556 233.774 403.503 230.902 404.279 228.049C404.973 225.508 406.083 223.105 406.768 220.558C407.825 216.624 407.557 212.593 407.27 208.577C410.252 205.107 415.139 205.6 418.806 203.24C422.099 201.12 424.143 197.76 426.077 194.462C426.206 194.246 425.861 193.988 425.713 194.199C423.267 197.588 420.577 201.355 416.594 203.025C413.507 204.322 409.601 204.428 407.151 206.835C407.112 206.232 407.074 205.629 407.045 205.031C406.916 202.221 406.978 199.373 407.754 196.649C408.505 194.022 409.917 191.662 411.248 189.302C411.621 188.637 411.966 187.971 412.287 187.306C413.722 185.731 415.254 184.731 417.336 183.893C419.385 183.065 421.415 182.314 423.224 181.012C426.211 178.858 428.494 175.689 429.47 172.132C429.523 171.936 429.212 171.807 429.13 172.003C427.522 175.876 424.861 179.14 421.123 181.122C418.94 182.28 415.79 182.984 413.498 184.506C414.728 181.313 415.527 178.02 416.212 174.526C417.384 168.533 419.189 163.1 422.463 157.912L422.458 157.931Z" fill="#E5D1D7"/>
<path d="M615.581 297.272C615.413 296.856 615.093 296.564 614.767 296.315C612.982 294.975 610.813 294.654 608.722 294.4C606.099 294.084 35.2851 292.663 35.2851 292.663V293.831C33.2412 293.974 31.2021 294.151 29.1583 294.4C27.0665 294.654 24.8934 294.975 23.1128 296.315C22.7873 296.559 22.4666 296.856 22.2991 297.272C21.7247 298.708 23.3043 300.043 24.6254 300.264C25.9417 300.479 27.5835 300.58 28.1196 302.04C28.4738 303.006 28.1914 304.327 28.8663 305.002C29.1391 305.275 29.5077 305.361 29.8619 305.433C34.39 306.352 593.596 306.012 593.596 306.012C593.85 306.036 594.089 306.06 594.309 306.084C598.88 306.568 603.504 306.352 608.032 305.438C608.387 305.366 608.755 305.28 609.028 305.007C609.703 304.332 609.42 303.006 609.775 302.044C610.311 300.584 611.953 300.484 613.269 300.268C614.585 300.053 616.17 298.718 615.595 297.277L615.581 297.272Z" fill="#4389C8"/>
<path d="M517.182 231.197C517.517 228.291 518.369 225.467 518.747 222.567C519.125 219.666 518.986 216.56 517.474 214.056C522.71 215.262 526.922 219.403 529.277 224.232C531.632 229.062 532.341 234.528 532.518 239.894C532.623 243.092 533.657 250.855 531.891 253.608C529.842 256.795 526.492 253.397 524.419 251.32C519.235 246.117 516.339 238.544 517.182 231.202V231.197Z" fill="#8FA6D1"/>
<path d="M528.71 239.507C528.384 233.94 532.673 228.976 532.745 223.4C532.845 215.794 525.182 208.432 528.475 201.578C529.949 198.51 533.338 196.609 534.492 193.412C535.636 190.224 534.243 186.73 534.162 183.346C534.037 177.999 537.306 173.036 541.538 169.762C545.764 166.488 550.886 164.626 555.912 162.807C550.986 164.846 548.172 170.293 547.674 175.601C547.176 180.909 548.564 186.189 549.828 191.368C551.092 196.547 552.25 201.927 551.302 207.173C550.594 211.074 548.737 214.818 548.919 218.776C549.172 224.247 553.317 229.397 552.02 234.72C551.518 236.788 550.235 238.569 548.981 240.287C546.511 243.681 541.944 253.541 537.01 252.56C532.95 251.756 528.7 243.216 528.7 239.502L528.71 239.507Z" fill="#8FA6D1"/>
<path d="M568.873 224.574C571.711 223.865 574.655 223.669 577.503 223.004C580.351 222.338 583.209 221.113 585.023 218.815C585.736 224.138 583.343 229.542 579.647 233.443C575.957 237.344 571.089 239.929 566.125 241.982C563.167 243.208 556.265 246.908 553.067 246.219C549.363 245.419 551.363 241.087 552.584 238.416C555.633 231.73 561.702 226.359 568.873 224.564V224.574Z" fill="#8FA6D1"/>
<path d="M577.853 225.684C574.058 228.273 569.869 229.384 565.7 231.169C563.489 232.117 561.488 233.333 559.947 235.065C560.167 233.309 560.837 231.662 561.972 230.231C562.388 229.709 561.651 228.962 561.23 229.489C559.712 231.404 558.889 233.639 558.831 236.056C557.51 237.909 556.481 239.914 555.749 242.073C555.711 242.135 555.677 242.193 555.639 242.255C555.524 241.211 556.065 238.732 556.141 238.287C556.366 236.956 556.639 235.664 557.405 234.529C557.783 233.969 556.874 233.443 556.5 233.998C555.433 235.582 555.151 237.559 554.921 239.421C554.796 240.436 554.275 242.327 554.964 243.284C553.413 245.61 551.728 247.85 549.895 249.98C548.114 252.048 546.209 254.015 544.204 255.863C543.199 256.787 542.165 257.682 541.112 258.544C540.173 259.314 539.187 260.19 538.201 260.41C538.288 257.237 538.594 254.068 539.144 250.928C539.451 249.191 539.819 247.463 540.212 245.744C543.074 243.772 545.63 241.484 547.889 238.832C548.454 238.167 547.497 237.2 546.927 237.87C545.056 240.067 542.988 242.015 540.69 243.734C541.423 240.694 542.198 237.664 542.82 234.606C543.486 234.189 543.917 233.404 544.443 232.763C545.783 231.126 547.128 229.489 548.469 227.852C549.019 227.182 548.062 226.21 547.506 226.89C546.52 228.091 545.539 229.293 544.553 230.494C544.314 230.781 543.792 231.609 543.256 232.327C543.658 230.039 543.95 227.732 544.051 225.387C544.165 222.663 544.089 219.93 543.897 217.192C545.793 213.722 547.688 210.257 549.584 206.786C550.005 206.016 548.828 205.331 548.406 206.097C546.836 208.969 545.266 211.841 543.696 214.713C543.175 208.94 542.27 203.148 541.782 197.385C543.117 194.523 544.453 191.661 545.788 188.794C546.157 188.004 544.984 187.31 544.611 188.104C543.601 190.273 542.586 192.441 541.576 194.609C541.183 187.946 541.509 181.331 543.783 174.841C544.075 174.013 542.758 173.654 542.471 174.477C540.456 180.24 539.968 186.147 540.15 192.091C539.479 189.401 538.924 186.683 538.479 183.935C538.34 183.074 537.029 183.437 537.167 184.299C537.905 188.851 538.948 193.326 540.303 197.735C540.341 197.864 540.422 197.974 540.528 198.056C541.002 203.33 541.782 208.61 542.275 213.827C542.284 213.928 542.289 214.024 542.299 214.124C540.633 210.3 538.972 206.48 537.306 202.655C536.957 201.856 535.784 202.545 536.129 203.345C538.221 208.15 540.312 212.961 542.404 217.767C542.442 217.853 542.5 217.915 542.567 217.968C542.811 222.745 542.667 227.479 541.911 232.217C539.996 227.594 538.086 222.97 536.172 218.346C535.842 217.547 534.525 217.896 534.86 218.71C537.024 223.937 539.183 229.164 541.346 234.39C541.38 234.467 541.423 234.544 541.475 234.615C541.442 234.773 541.413 234.936 541.38 235.094C540.805 237.794 540.135 240.469 539.489 243.15C537.895 239.814 536.593 236.377 535.578 232.811C535.339 231.968 534.023 232.327 534.267 233.175C535.454 237.344 537.038 241.36 539.001 245.227C538.192 248.707 537.474 252.211 537.124 255.791C536.981 257.27 536.885 258.749 536.842 260.228C536.521 260.047 536.201 259.75 535.885 259.314C533.645 256.217 531.553 252.919 529.782 249.468C530.012 246.668 530.375 243.892 530.892 241.13C531.055 240.273 529.739 239.905 529.581 240.766C529.183 242.877 528.877 244.997 528.647 247.128C527.819 245.328 527.087 243.495 526.474 241.628C526.513 241.566 526.541 241.499 526.551 241.417C527.053 238.052 527.628 234.697 528.274 231.356C528.442 230.499 527.13 230.135 526.962 230.992C526.469 233.543 526.02 236.099 525.608 238.66C524.627 234.788 524.191 230.796 524.502 226.722C524.569 225.846 523.205 225.851 523.143 226.722C522.832 230.791 523.248 234.816 524.215 238.722C523.21 237.641 522.324 236.463 521.554 235.161C521.108 234.41 519.931 235.094 520.376 235.85C521.606 237.928 523.119 239.737 524.938 241.312C525.407 242.82 525.957 244.313 526.575 245.778C526.962 246.697 527.379 247.597 527.81 248.497C526.024 247.041 524.502 245.328 523.248 243.351C522.779 242.614 521.602 243.294 522.071 244.04C523.803 246.769 526.015 249.037 528.69 250.847C528.81 250.928 528.935 250.957 529.054 250.952C529.748 252.259 530.481 253.542 531.256 254.805C532.209 256.361 533.219 257.888 534.262 259.381C534.894 260.281 535.55 261.497 536.55 262.028C536.636 262.076 536.727 262.105 536.813 262.138C536.808 267.987 537.56 273.817 539.015 279.499C539.23 280.346 540.547 279.987 540.327 279.135C538.91 273.602 538.182 267.916 538.182 262.229C539.747 261.88 541.27 260.204 542.366 259.295C544.855 257.242 547.195 255.011 549.378 252.637C552.255 249.502 554.825 246.113 557.094 242.528C562.895 240.747 568.476 238.435 573.837 235.592C574.436 235.276 573.904 234.371 573.306 234.687C568.371 237.305 563.245 239.459 557.936 241.163C558.827 239.684 559.674 238.172 560.459 236.631C560.469 236.611 560.473 236.592 560.483 236.573C561.967 236.631 563.431 236.501 564.882 236.176C565.542 236.027 565.26 235.017 564.604 235.166C563.403 235.434 562.197 235.549 560.971 235.539C563.125 233.285 566.136 232.083 569.142 231.021C572.43 229.858 575.494 228.594 578.389 226.617C578.945 226.239 578.418 225.329 577.858 225.712L577.853 225.684Z" fill="#557490"/>
<path d="M521.934 273.052L524.829 301.714H552.266L555.176 276.604L521.934 273.052Z" fill="#112E4F"/>
<path d="M562.239 269.504H514.934V276.603H562.239V269.504Z" fill="#1A4072"/>
<path d="M73.8364 259.366C72.1659 254.34 72.6494 248.822 73.9657 243.69C74.8847 240.105 76.2058 236.362 75.1958 232.801C74.4012 229.986 72.276 227.789 70.5193 225.453C64.7467 217.766 62.6406 207.437 64.9525 198.103C67.274 188.721 73.7886 180.115 72.9461 170.484C72.3143 163.276 67.5612 156.819 67.4416 149.581C67.2692 139.525 77.9625 130.813 87.7797 133.02C92.6668 142.344 86.1906 153.995 88.8998 164.171C91.0346 172.193 98.4969 177.851 101.101 185.734C104.241 195.241 99.6983 205.742 101.603 215.569C103.283 224.233 109.898 232.198 108.204 240.861C106.893 247.572 100.67 253.575 102.518 260.156C102.948 261.693 103.824 263.215 103.508 264.78C103.121 266.704 101.125 267.81 99.2819 268.49C89.0195 272.29 77.7566 271.16 73.8364 259.362V259.366Z" fill="#8FA6D1"/>
<path d="M100.373 235.301C104.183 232.027 109.113 229.715 111.449 225.268C113.675 221.037 113.053 215.671 115.575 211.607C118.548 206.811 124.789 205.394 129.289 201.991C133.683 198.669 136.315 193.504 140.398 189.809C144.481 186.114 151.532 184.367 155.155 188.512C148.205 195.055 140.887 202.259 139.144 211.645C138.326 216.059 138.79 220.807 136.832 224.847C134.487 229.696 129.183 232.433 126.244 236.942C122.688 242.404 123.081 249.636 119.96 255.352C116.063 262.484 102.178 270.549 94.969 263.714C87.0616 256.218 93.6671 241.059 100.373 235.301Z" fill="#8FA6D1"/>
<path d="M135.177 206.255C129.768 207.974 127.7 213.301 125.929 218.198C125.556 219.232 125.163 220.232 124.727 221.185C124.603 218.38 124.89 215.613 125.623 212.861C125.881 211.88 124.364 211.463 124.105 212.444C123.153 216.039 122.885 219.663 123.33 223.358C123.344 223.463 123.378 223.564 123.416 223.655C122.583 224.99 121.573 226.22 120.281 227.331C118.797 228.604 117.16 229.7 115.628 230.911C116.289 229.083 117.189 227.374 118.347 225.765C118.94 224.942 117.576 224.157 116.988 224.971C115.269 227.359 114.073 229.997 113.402 232.859C113.402 232.869 113.402 232.874 113.402 232.883C108.956 237.473 109.473 244.065 107.673 249.813C107.199 251.331 106.62 252.805 105.95 254.231C105.902 254.064 105.84 253.858 105.758 253.604C105.461 252.676 105.323 251.661 105.17 250.699C104.763 248.152 104.676 245.601 104.782 243.031C104.825 242.016 103.25 242.021 103.207 243.031C103.087 245.907 103.241 248.765 103.734 251.603C103.93 252.733 104.035 255.031 105.012 256.079C102.872 260.042 100.005 263.594 96.5776 266.576C95.8118 267.241 96.927 268.352 97.6881 267.686C101.292 264.546 104.274 260.798 106.5 256.596C107.912 256.4 109.477 254.791 110.449 254.131C113.144 252.302 115.81 250.426 118.447 248.521C119.261 247.932 118.476 246.568 117.653 247.161C115.939 248.401 114.211 249.631 112.474 250.838C110.961 251.886 109.339 253.283 107.673 254.169C107.769 253.958 107.869 253.748 107.96 253.537C109.071 250.89 109.846 248.147 110.344 245.323C110.933 241.963 111.205 238.383 113.225 235.501C113.627 234.932 114.063 234.4 114.532 233.903C117.327 234.257 120.065 234.027 122.765 233.146C123.722 232.83 123.311 231.313 122.349 231.629C120.271 232.309 118.16 232.601 116.016 232.481C119.232 229.666 123.162 227.627 125.321 223.659C125.34 223.626 125.354 223.592 125.374 223.559C127.063 222.63 128.753 221.706 130.443 220.778C131.333 220.29 130.538 218.93 129.648 219.418C128.585 219.998 127.528 220.582 126.465 221.161C128.542 215.977 129.758 209.616 135.579 207.768C136.541 207.462 136.129 205.944 135.162 206.251L135.177 206.255Z" fill="#557490"/>
<path d="M96.073 207.208C92.9904 213.133 90.3003 219.576 85.71 224.506C84.3028 221.309 83.02 218.111 83.0343 214.507C83.0487 210.463 84.274 206.547 84.9825 202.584C85.8871 201.909 86.3706 200.392 86.7918 199.482C87.6582 197.62 88.3857 195.691 88.9553 193.719C90.2094 189.373 90.6593 184.873 90.4152 180.36C90.3626 179.355 88.7878 179.345 88.8404 180.36C89.1803 186.659 88.0937 192.953 85.4276 198.683C85.7627 191.192 82.9242 184.098 80.5453 177.062C80.0954 175.731 79.6646 174.362 79.2769 172.96C82.8476 174.176 84.8245 159.926 85.0207 157.887C85.1165 156.882 83.5465 156.886 83.446 157.887C83.1779 160.653 82.6801 163.372 81.876 166.034C81.6031 166.938 81.2968 167.838 80.9617 168.724C80.6506 169.547 80.3108 170.356 79.947 171.155C79.2864 170.744 78.7886 170.193 78.4536 169.504C78.4488 169.494 78.444 169.489 78.4344 169.48C77.1325 163.071 77.2378 156.408 81.3925 150.994C82.01 150.19 80.641 149.405 80.0331 150.2C76.1177 155.292 75.4476 160.754 76.2182 166.354C73.9685 162.917 72.0491 158.873 72.8102 155.053C73.0064 154.062 71.4891 153.641 71.2928 154.637C70.6323 157.939 71.537 160.931 73.0878 163.856C74.0451 165.66 75.1987 167.359 76.2996 169.073C76.5054 169.394 76.7208 169.791 76.9458 170.207C79.0758 179.225 83.8337 188.473 83.9151 197.027C83.9246 198.218 83.8337 199.396 83.6853 200.569C81.7372 201.014 79.2051 197.965 78.0276 196.342C76.2326 193.887 75.1652 191.029 74.8349 188.013C74.7248 187.018 73.15 187.008 73.2601 188.013C73.6526 191.594 74.9115 194.916 77.142 197.764C78.1712 199.075 81.0192 202.392 83.3167 202.881C82.7854 205.767 82.0339 208.629 81.6701 211.544C81.1628 215.599 81.785 219.255 83.3263 223.013C83.3359 223.037 83.3454 223.061 83.355 223.085C81.6845 221.314 80.014 219.538 78.3483 217.767C75.7587 215.015 72.1161 211.707 73.1309 207.528C73.3702 206.542 71.8529 206.126 71.6136 207.112C70.7615 210.625 72.523 213.569 74.7392 216.178C77.8505 219.839 81.3303 223.233 84.6235 226.727C84.7431 226.857 84.9011 226.924 85.0686 226.943C86.2078 229.489 87.2561 232.074 87.481 234.879C87.8592 239.574 85.6957 244.213 85.059 248.822C84.7 251.436 84.5995 254.068 84.7383 256.677C81.9956 252.259 79.7842 247.563 78.1424 242.6C77.8265 241.642 76.3044 242.054 76.6251 243.016C78.6307 249.076 81.4452 254.767 85.0495 260.032C85.7722 265.508 87.5481 270.836 90.2812 275.689C90.779 276.57 92.1384 275.78 91.6406 274.895C89.1085 270.386 87.4284 265.465 86.6865 260.396C86.7104 260.348 86.7391 260.3 86.7535 260.238C88.6346 253.154 91.3773 246.391 94.9673 240C95.4651 239.115 94.1057 238.32 93.6079 239.206C90.5636 244.624 88.1225 250.311 86.2796 256.222C86.1887 254.087 86.2605 251.938 86.5094 249.799C87.0072 245.519 88.6921 241.456 89.0367 237.162C89.3239 233.577 88.2134 230.25 86.8061 227C86.6721 226.684 86.5333 226.373 86.3945 226.062C91.3582 220.974 94.1823 214.244 97.4276 208.007C97.8919 207.112 96.5373 206.313 96.0682 207.212L96.073 207.208Z" fill="#557490"/>
<path d="M73.2754 267.328L76.7457 301.715H109.668L113.157 271.583L73.2754 267.328Z" fill="#112E4F"/>
<path d="M121.639 263.068H64.875V271.584H121.639V263.068Z" fill="#1A4072"/>
<path d="M361.999 24.5996L343.877 30.7073L331.217 34.8812C331.217 34.8812 329.8 39.371 332.873 40.4336C335.946 41.4914 369.433 32.8421 369.433 32.8421C369.433 32.8421 367.442 24.9921 361.999 24.5996Z" fill="#1A4072"/>
<path d="M343.877 30.7078L331.217 34.8817C331.217 34.8817 329.8 39.3715 332.873 40.4342C334.247 40.908 342.676 39.4194 350.234 37.5096C349.985 34.0824 349.152 32.5746 346.998 29.8989L343.872 30.7031L343.877 30.7078Z" fill="#87532C"/>
<path d="M385.452 59.3641C388.85 58 393.934 56.0853 397.48 55.1902C400.869 54.3334 401.472 55.329 404.89 54.6015C398.131 38.6 378.693 21.1433 378.693 21.1433C365.846 20.4732 360.758 27.7296 360.758 27.7296L374.84 60.9293C377.439 61.475 383.116 60.2975 385.447 59.3641H385.452Z" fill="#1A4072"/>
<path d="M377.188 17.0983C377.499 16.8541 378.878 7.74528 377.188 5.07437C375.498 2.40346 352.341 -7.46646 352.59 11.2826C352.839 30.0364 367.361 24.7759 377.188 17.0935V17.0983Z" fill="#0D1D2A"/>
<path d="M352.596 11.2858C352.596 11.2858 353.438 26.8183 362.6 28.2782C371.761 29.7381 374.695 21.8833 374.695 21.8833C374.695 21.8833 378.821 23.5347 380.205 20.275C381.588 17.0154 377.242 16.4793 377.242 16.4793L372.747 18.9731L371.78 17.9152L369.985 10.6396C369.985 10.6396 356.923 16.4314 352.605 11.2858H352.596Z" fill="#87532C"/>
<path d="M378.221 18.4148C378.662 18.6589 378.939 19.2189 378.772 19.6976C378.671 19.9752 378.441 20.1906 378.188 20.339C377.666 20.6405 377.005 20.6932 376.441 20.4826C374.153 19.6258 376.862 17.6585 378.221 18.4148Z" fill="#58301A"/>
<path d="M333.231 63.6772C334.5 61.9014 336.879 60.992 339.009 61.4754C341.139 61.9541 342.9 63.7921 343.288 65.9413C343.46 66.889 343.336 67.9756 342.637 68.6361C342.029 69.2153 341.129 69.3446 340.296 69.4499C337.912 69.7418 335.888 69.7753 333.777 68.5356C331.604 67.2576 331.719 65.7929 333.231 63.6772Z" fill="#87532C"/>
<path d="M340.163 69.8815L338.368 73.3997C338.368 73.3997 331.954 111.941 331.954 111.214C331.954 110.486 338.387 67.4883 338.387 67.4883L332.198 67.2681C332.198 67.2681 311.056 124.903 318.906 128.503C326.76 132.102 346.998 107.763 346.998 107.763L340.163 69.8768V69.8815Z" fill="#87532C"/>
<path d="M340.161 69.8804L338.366 73.3985C338.366 73.3985 332.809 102.046 331.066 106.55C331.339 107.91 332.814 112.969 333.01 116.42C333.235 120.321 332.076 119.79 331.066 123.567C336.906 121.207 346.996 107.771 346.996 107.771L340.161 69.8851V69.8804Z" fill="#3F5F83"/>
<path d="M352.097 150.87C352.097 150.87 347.181 207.055 349.191 231.399C351.202 255.744 354.136 293.615 354.136 293.615C354.136 293.615 339.934 296.248 339.709 298.674L366.385 299.613L363.096 291.049C363.096 291.049 367.758 254.155 367.605 250.991C367.452 247.827 363.671 240.57 363.671 240.57L373.923 171.371C374.053 170.5 374.675 169.777 375.517 169.523C376.92 169.097 378.356 170.093 378.452 171.557L380.448 240.977L394.52 292.155C394.52 292.155 385.488 297.607 384.339 300.536L405.199 301.274L401.872 291.959L403.016 248.147L400.733 243.567L401.872 151.21C401.872 151.21 361.258 146.653 354.744 150.707L352.097 150.875V150.87Z" fill="#112E4F"/>
<path d="M401.916 290.395L401.873 291.96L405.2 301.274L384.34 300.537C385.489 297.608 394.521 292.156 394.521 292.156L394.377 291.634C396.943 291.826 399.556 291.409 401.916 290.395Z" fill="#092339"/>
<path d="M356.256 294.134C357.534 294.392 358.86 294.517 360.133 294.239C361.449 293.952 362.646 293.2 363.527 292.181" fill="#092339"/>
<path d="M410.894 65.7001C403.527 60.1094 362.324 61.9139 362.324 61.9139L337.898 70.3144L350.726 155.056C350.894 156.176 351.866 156.994 352.995 156.975L397.846 156.219C399.731 155.956 401.201 154.448 401.421 152.557C403.13 137.762 417.356 70.6112 410.889 65.7001H410.894Z" fill="#8FA6D1"/>
<path d="M401.201 57.7351C401.067 56.6294 400.933 55.5524 401.01 54.6861C396.826 53.8484 394.065 54.3127 389.843 53.6761C386.2 53.1304 382.658 52.9054 378.996 52.7092C377.331 52.6183 375.531 52.489 373.894 51.9673L373.913 52.0774L359.616 52.1731L343.365 67.5189C343.365 67.5189 331.897 59.262 332.179 63.8476C332.461 68.4331 344.95 78.236 344.95 78.236L362.488 62.6653C362.488 62.6653 385.832 64.5751 391.073 65.5707C393.476 66.0255 395.807 65.3362 397.626 64.4507C400.129 63.2349 401.541 60.5065 401.197 57.7447L401.201 57.7351Z" fill="#0D1D2A"/>
<path d="M338.387 67.487C338.775 66.6015 338.971 65.6202 338.928 64.6581C335.735 62.8153 332.021 61.2118 332.179 63.8444C332.284 65.5437 334.065 67.9609 336.266 70.3254C337.157 69.5309 337.908 68.5736 338.387 67.4822V67.487Z" fill="#416780"/>
<path d="M343.601 72.8402C340.26 69.346 336.407 66.3496 332.199 63.9707C332.687 68.6089 344.955 78.2299 344.955 78.2299L346.219 77.1051C345.774 76.3679 345.295 75.717 344.97 74.7788C344.707 74.0273 344.156 73.4146 343.606 72.8355L343.601 72.8402Z" fill="#0C1822"/>
<path d="M377.182 22.2993L375.617 47.2326L374.248 60.4962C374.248 60.4962 378.838 62.8225 381.064 60.4483C382.749 58.6533 385.903 38.5162 387.339 28.8234C387.919 24.908 385.295 21.1697 381.385 20.5474C379.681 20.2794 378.082 20.6192 377.182 22.2945V22.2993Z" fill="#1A4072"/>
<path d="M375.617 47.2329L374.248 60.4965C374.248 60.4965 378.838 62.8228 381.064 60.4534C382.06 59.3908 383.553 52.1583 384.903 44.4759C381.677 43.3031 379.485 43.1835 376.163 44.0546L375.622 47.2329H375.617Z" fill="#58301A"/>
<path d="M363.719 56.1084C363.686 54.7873 363.566 53.4423 363.044 52.2313C363.035 52.2025 363.016 52.1786 363.006 52.1499L359.622 52.1738L345.971 65.0641C346.33 65.2747 346.665 65.538 346.985 65.8156C349.039 67.5818 350.829 69.8698 351.48 72.4498L362.499 62.666C362.499 62.666 362.762 62.6852 363.226 62.7282C363.609 60.5456 363.782 58.3294 363.724 56.1132L363.719 56.1084Z" fill="#58301A"/>
<path d="M373.091 47.4219L373.857 59.8047C373.857 59.8047 366.82 72.4509 366.49 72.0536C365.777 71.192 363.92 67.4106 363.47 64.6105L360.406 51.7681L373.091 47.4219Z" fill="#58301A"/>
<path d="M366.369 73.6041C365.192 72.3452 365.398 71.8474 364.22 70.5885C364.11 70.4689 363.99 70.3444 363.837 70.287C363.579 70.1913 363.291 70.3013 363.043 70.4258C361.918 70.981 360.903 71.7565 360.061 72.6899C361.051 69.8897 361.851 67.0178 362.459 64.1123C364.273 67.1039 365.412 69.8418 366.771 73.0632" fill="#5A78A3"/>
<path d="M362.215 59.3633L365.01 66.8256L366.776 73.0577L362.904 67.1941L358.266 69.9799L360.85 61.7853L362.215 59.3633Z" fill="#3F5F83"/>
<path d="M373.09 47.4219L373.63 56.1861C373.42 56.569 373.2 56.9472 372.97 57.3109C371.749 59.2734 370.17 61.1976 367.958 61.8869C366.211 62.4278 364.335 62.0879 362.669 61.2694L360.4 51.7681L373.085 47.4219H373.09Z" fill="#391F13"/>
<path d="M352.221 42.29C352.369 41.8688 352.532 41.4667 352.699 41.0934C358.223 45.7795 366.446 36.6945 370.946 39.0304C372.382 39.9111 373.277 40.6099 373.277 40.6099C376.335 40.3802 377.791 42.0603 377.862 45.3774C377.934 48.6993 373.521 49.0774 373.521 49.0774C374.675 55.501 370.338 60.0004 362.981 60.8955C355.624 61.7953 352.225 42.2852 352.225 42.2852L352.221 42.29Z" fill="#87532C"/>
<path d="M373.052 44.7067C373.057 44.7976 373.052 44.9125 372.971 44.9508C372.927 44.9747 372.87 44.9604 372.822 44.9508C372.171 44.8216 371.492 44.8455 370.855 45.0178C370.908 43.6967 370.774 42.3708 370.462 41.088C364.484 42.1746 358.352 42.2368 352.331 43.0745C351.828 38.2113 351.479 34.382 351.105 29.5045C351.292 29.27 352.163 29.1886 352.431 29.3035C352.699 29.4184 352.876 29.7343 352.833 30.0311C352.728 29.3992 353.092 28.7961 353.681 28.5424C354.269 28.2887 355.083 28.6573 355.155 29.2939C355.447 28.8679 356.112 28.1834 356.581 27.968C357.05 27.7526 357.749 27.9824 357.783 28.4946C358.065 27.4989 359.362 26.9485 360.277 27.4319C360.339 27.4654 360.411 27.5133 360.42 27.5851C360.43 27.6569 360.329 27.7287 360.286 27.6713C360.693 27.2883 361.435 26.5991 361.99 26.5273C362.545 26.4507 363.182 26.7283 363.35 27.2644C363.747 26.8336 364.216 26.398 364.8 26.3406C365.384 26.2832 366.035 26.8288 365.848 27.3841C366.126 27.0012 367.021 26.6804 367.48 26.7762C367.945 26.8719 368.332 27.2548 368.433 27.7191C368.648 27.1878 369.242 26.8336 369.811 26.9006C370.381 26.9676 370.879 27.4511 370.96 28.0159C371.238 27.542 372.095 27.183 372.64 27.2548C373.181 27.3266 373.645 27.8867 373.516 28.418C373.794 28.0063 374.363 27.8197 374.833 27.9824C375.302 28.1451 375.627 28.6525 375.584 29.1455C376.139 28.7865 376.953 28.9158 377.369 29.4232C377.786 29.9353 377.748 30.7586 377.283 31.2277C377.853 31.5675 378.154 32.5584 377.757 33.0897C378.111 33.0035 378.446 33.3721 378.466 33.7407C378.485 34.1044 378.293 34.4443 378.107 34.7602L377.413 35.9281C376.316 37.7757 375.991 38.7761 375.101 40.729C374.392 40.5615 372.913 42.9644 373.038 44.6923L373.052 44.7067Z" fill="#0D1D2A"/>
<path d="M375.389 43.4243C375.552 43.4578 375.69 43.5631 375.796 43.6876C376.054 43.9891 376.131 44.4199 376.078 44.8124C376.025 45.2049 375.853 45.5735 375.657 45.9229C375.542 46.1239 375.418 46.325 375.25 46.4781C375.035 46.6792 374.752 46.794 374.479 46.9089C374.422 46.9328 374.36 46.9568 374.298 46.9568C374.211 46.9568 374.135 46.9137 374.068 46.861C373.01 46.0665 373.871 43.094 375.389 43.4147V43.4243Z" fill="#58301A"/>
<path d="M370.828 45.5014C371.469 45.2525 372.244 45.4775 372.895 45.6163C373.106 45.6641 373.039 45.9848 372.833 45.98C372.206 45.9705 371.498 46.1763 370.885 46.0423C370.65 45.9896 370.593 45.5923 370.828 45.5014Z" fill="#0D1D2A"/>
<path d="M371.037 46.4061C371.612 46.2625 372.196 46.4779 372.77 46.521C373.005 46.5402 372.995 46.8992 372.756 46.8848C372.2 46.8609 371.655 47.0858 371.1 47.038C370.745 47.0092 370.674 46.4971 371.037 46.4061Z" fill="#0D1D2A"/>
<path d="M370.931 47.2242C371.376 47.0566 371.888 47.0997 372.348 47.1667C372.692 47.2146 372.687 47.7028 372.328 47.7124C371.874 47.7268 371.443 47.8464 370.998 47.8799C370.835 47.8895 370.696 47.7316 370.682 47.5832C370.663 47.4061 370.773 47.2864 370.931 47.229V47.2242Z" fill="#0D1D2A"/>
<path d="M366.814 67.2455C366.474 70.5769 366.149 72.6351 365.938 75.3204C365.718 78.1493 365.493 80.9781 365.292 83.8118C364.899 89.3499 364.583 94.8975 364.358 100.445C363.894 111.765 363.923 123.143 364.89 134.444C365.153 137.532 365.488 140.619 365.909 143.687C366.33 146.779 367.159 154.203 368.011 157.209C368.169 157.764 369.044 157.578 368.987 157.003C368.695 154.198 367.565 147.215 367.168 144.419C366.785 141.71 366.469 138.991 366.206 136.268C365.675 130.725 365.378 125.163 365.263 119.596C365.024 108.415 365.474 97.2286 366.115 86.0711C366.297 82.8688 366.479 79.6666 366.67 76.4692C366.852 73.4249 367.202 70.3089 366.991 67.255C366.986 67.1497 366.824 67.1402 366.814 67.2407V67.2455Z" fill="#3F5F83"/>
<path d="M370.998 67.3761C370.845 67.5962 366.039 74.0485 366.039 74.0485L366.819 67.2468L369.677 66.1172L370.998 67.3761Z" fill="#112E4F"/>
<path d="M373.855 57.8784L366.814 67.2458L374.401 72.3195L376.541 61.4348L373.855 57.8784Z" fill="#3F5F83"/>
<path d="M404.586 53.7743C404.026 52.8122 403.475 51.8789 403.207 51.0508C399.034 51.9315 396.679 53.4536 392.553 54.5354C388.991 55.4736 385.65 56.6654 382.209 57.9339C380.644 58.5131 378.935 59.1018 377.226 59.2693L377.288 59.3603L364.192 65.0994L353.915 84.9302C353.915 84.9302 341.532 82.5704 343.605 86.6725C345.678 90.7746 361.023 94.8384 361.023 94.8384L370.975 73.6003C370.975 73.6003 393.17 66.1237 398.383 64.9654C400.771 64.4341 402.638 62.8784 403.959 61.3467C405.778 59.2358 405.993 56.1772 404.586 53.7743Z" fill="#0D1D2A"/>
<path d="M362.542 77.9502C361.681 77.3232 360.699 76.8301 359.646 76.6626C359.168 76.586 358.675 76.586 358.191 76.6626L364.184 65.103L353.912 84.9242C354.917 85.2784 355.779 86.0491 356.167 87.0447C356.348 87.5186 356.435 88.0259 356.64 88.4902C357.272 89.9262 358.9 90.649 360.441 90.9266C361.192 91.0606 361.958 91.1228 362.719 91.2138L370.971 73.604L366.281 83.6175C365.749 81.3726 364.409 79.3144 362.542 77.955V77.9502Z" fill="#FDF1F4"/>
<path d="M351.212 86.8586C351.015 85.9444 350.561 85.0732 349.929 84.384C346.511 84.0728 342.328 84.1494 343.601 86.672C344.429 88.3137 347.392 89.9508 350.647 91.3245C351.255 89.9077 351.532 88.352 351.216 86.8586H351.212Z" fill="#416780"/>
<path d="M372.879 66.7835C372.372 65.515 371.64 64.3232 370.673 63.3659C369.941 63.2989 369.237 63.2366 368.572 63.1792L364.182 65.1034L358.189 76.663C358.668 76.5912 359.166 76.5912 359.645 76.663C360.698 76.8305 361.679 77.3187 362.54 77.9506C364.407 79.31 365.747 81.3682 366.279 83.6131L370.97 73.5996C370.97 73.5996 372.181 73.1927 374.105 72.5513C374.09 72.3551 374.067 72.1636 374.047 71.9673C373.846 70.2011 373.54 68.4301 372.879 66.7787V66.7835Z" fill="#87532C"/>
<path d="M411.068 66.1128C411.068 66.1128 437.863 127.448 414.108 123.365L403.721 98.3935C403.721 98.3935 407.138 76.4135 411.068 66.1128Z" fill="#3F5F83"/>
<path d="M419.592 122.863C419.592 122.863 416.73 101.06 385.928 65.103L381.137 66.8741C381.137 66.8741 401.441 127.477 408.281 130.234C415.121 132.991 419.247 128.434 419.592 122.858V122.863Z" fill="#87532C"/>
<path d="M354.852 69.4501C354.201 66.8701 348.649 63.0887 348.29 62.8733L343.374 67.5163C343.374 67.5163 343.178 67.3775 342.848 67.1477C343.298 67.837 343.872 68.4544 344.399 69.0958C345.978 71.0105 347.175 73.2362 347.926 75.6056L362.497 62.6675L354.852 69.4548V69.4501Z" fill="#FDF1F4"/>
<path d="M381.14 66.8735C380.355 67.1799 379.737 66.28 379.311 65.5476C378.885 64.8153 378.761 63.9585 378.416 63.1878C378.124 62.5369 377.679 61.9529 377.128 61.503C376.482 60.9764 375.501 60.6414 374.831 61.1392C374.477 61.0626 374.199 60.6127 374.366 60.292C374.539 59.9713 374.903 59.7989 375.257 59.7128C375.611 59.6218 375.98 59.5931 376.315 59.4399C376.372 58.9326 376.942 58.4683 377.425 58.3103C377.913 58.1524 378.44 58.2002 378.947 58.2864C379.613 57.4152 380.876 57.0706 381.891 57.4966C382.686 57.2956 383.447 57.3003 383.973 57.9322C384.5 58.564 384.749 59.3777 384.926 60.1771C385.38 62.2449 385.428 64.4228 386.271 66.3661C386.414 66.7012 386.587 67.0697 386.467 67.4144C386.381 67.6729 386.151 67.85 385.931 68.0175C385.39 68.4244 384.835 68.8408 384.184 69.0275C383.533 69.2141 382.757 69.1232 382.293 68.6302C381.747 68.0462 381.786 67.3378 381.13 66.8783L381.14 66.8735Z" fill="#87532C"/>
<path d="M337.013 62.5324C336.946 61.5176 335.357 61.5129 335.424 62.5324C335.5 63.7099 335.337 64.8204 334.926 65.9261C334.572 66.8834 336.103 67.2998 336.458 66.3473C336.912 65.1219 337.099 63.8343 337.013 62.5324Z" fill="#87532C"/>
<path d="M338.07 63.2372C338.094 64.3524 337.927 65.4103 337.568 66.4681C337.238 67.435 338.769 67.8514 339.1 66.8893C339.502 65.7118 339.688 64.4817 339.66 63.2372C339.636 62.2176 338.051 62.2128 338.07 63.2372Z" fill="#87532C"/>
<path d="M343.114 65.0219C342.813 64.5193 342.233 64.572 341.894 64.8688C341.841 64.6438 341.784 64.4188 341.712 64.1939C341.405 63.2222 339.869 63.6386 340.18 64.6151C340.549 65.7734 340.606 66.927 340.319 68.1141C340.08 69.1049 341.606 69.5309 341.851 68.5353C342.013 67.8604 342.09 67.1807 342.08 66.5058C342.435 67.3913 342.492 68.3342 342.229 69.2963C341.956 70.2824 343.488 70.7036 343.76 69.7176C344.206 68.1093 343.981 66.4483 343.114 65.0171V65.0219Z" fill="#87532C"/>
<path d="M323.06 34.3927C324.032 34.4645 324.898 34.8427 325.721 35.3357C325.606 35.4936 325.506 35.6612 325.42 35.8335C324.008 35.5942 322.557 35.7378 321.188 36.2691C320.36 36.5898 320.93 37.8438 321.753 37.5231C322.83 37.1067 323.95 36.9966 325.051 37.1642C325.023 37.4131 325.013 37.6619 325.018 37.9061C323.548 38.1502 322.175 38.782 321.021 39.7824C320.351 40.3616 321.217 41.4338 321.887 40.8498C322.845 40.0169 323.965 39.4808 325.176 39.2655C325.2 39.3851 325.228 39.5048 325.262 39.6149C325.176 39.6675 325.094 39.725 325.013 39.7776C324.137 40.2658 323.328 40.8737 322.601 41.6109C322.462 41.7545 322.399 41.9172 322.39 42.08C322.27 42.6687 322.945 43.3005 323.457 42.7836C324.209 42.0273 325.022 41.3907 325.903 40.8498C325.97 40.8115 326.042 40.778 326.114 40.7397C327.569 41.0461 331.101 39.993 331.101 39.993L329.048 41.8741C326.995 43.7553 328.603 43.9228 328.603 43.9228C330.608 43.6643 333.768 40.3807 333.768 40.3807L335.084 35.8335C335.084 35.8335 329.33 33.2248 326.832 34.4119C325.717 33.7035 324.544 33.1195 323.189 33.019C322.309 32.952 322.179 34.3257 323.065 34.3927H323.06Z" fill="#87532C"/>
<path d="M462.904 71.018C462.904 71.018 413.363 122.526 413.205 125.652C413.047 128.778 468.677 158.574 468.677 158.574L470.056 151.969C470.056 151.969 443.552 127.437 438.234 123.675C438.234 123.675 470.175 104.098 471.252 100.216C472.329 96.3342 471.219 74.8424 462.904 71.0132V71.018Z" fill="#112E4F"/>
<path d="M470.055 152.395L468.677 159C468.677 159 459.309 153.984 448.271 147.848C449.454 144.239 451.737 138.366 452.484 136.025C461.53 143.21 470.055 152.395 470.055 152.395Z" fill="#AF7044"/>
<path d="M460.139 144.347C460.139 144.347 450.355 193.261 465.083 276.289V293.148C465.083 293.148 456.18 294.172 453.926 300.332H476.868L477.289 275.581C477.289 275.581 479.563 254.18 475.772 248.115L476.341 223.302L480.199 178.772H484.1C484.1 178.772 494.473 240.749 498.221 252.055L504.003 293.899C504.003 293.899 498.546 296.838 498.221 301.361C498.221 301.361 517.64 301.802 513.567 299.767C513.567 299.767 515.539 248.206 514.634 245.722C513.729 243.233 510.79 238.935 510.79 238.935L506.042 139.958C506.042 139.958 471.095 141.121 462.106 144.338" fill="#8FA6D1"/>
<path d="M466.083 239.48C463.924 239.408 461.789 239.054 459.698 238.518C460.942 250.163 462.689 262.771 465.087 276.293V293.152C465.087 293.152 456.184 294.176 453.93 300.336H476.872L477.293 275.585C477.293 275.585 479.567 254.184 475.776 248.119L476.02 237.45C472.98 238.972 469.496 239.59 466.083 239.48Z" fill="#AF7044"/>
<path d="M467.189 294.578C466.237 294.31 465.27 293.884 464.552 293.229C462.604 293.564 455.85 295.081 453.926 300.332H476.868L476.983 293.669C473.977 295.143 470.42 295.483 467.189 294.574V294.578Z" fill="#1A4072"/>
<path d="M514.638 245.725C513.733 243.236 510.794 238.938 510.794 238.938L510.603 234.994C505.955 236.712 501.168 237.947 496.262 237.641C495.764 237.607 495.266 237.554 494.773 237.492C496.138 244.126 497.358 249.449 498.225 252.058L504.007 293.902C504.007 293.902 498.55 296.841 498.225 301.364C498.225 301.364 513.068 302.542 514.063 300.44C514.063 300.44 515.542 248.209 514.638 245.72V245.725Z" fill="#AF7044"/>
<path d="M506.367 294.602C505.629 294.516 504.878 294.382 504.232 294.047C504.15 294.004 504.074 293.961 503.997 293.913C503.782 294.028 498.541 296.938 498.225 301.37C498.225 301.37 513.068 302.548 514.063 300.447C514.063 300.447 514.14 297.742 514.245 293.544C514.154 293.592 514.059 293.64 513.968 293.678C511.632 294.693 508.937 294.909 506.367 294.602Z" fill="#1A4072"/>
<path d="M462.905 71.0145L506.042 67.0225C506.042 67.0225 509.124 104.899 509.876 127.496C510.196 137.069 506.338 150.606 506.726 154.22H458.363C458.363 154.22 448.943 107.684 453.944 83.8712C455.179 77.9837 460.981 72.4313 462.905 71.0145Z" fill="#112E4F"/>
<path d="M506.109 67.0225C506.109 67.0225 531.88 125.811 520.377 132.867C508.875 139.922 496.459 85.1253 496.459 85.1253L506.109 67.0225Z" fill="#112E4F"/>
<path d="M474.371 67.2946C474.371 67.2946 466.488 66.165 468.211 70.7457C469.934 75.3265 474.333 81.9368 474.333 81.9368L474.371 67.2898V67.2946Z" fill="#3F5F83"/>
<path d="M465.75 49.5273C465.75 49.5273 462.313 69.7937 474.366 67.2951L474.328 81.942C474.328 81.942 484.6 71.1627 486.648 67.0701V59.5648C486.648 59.5648 491.88 60.929 492.105 56.152C492.335 51.375 489.831 48.4216 487.328 50.6953L465.75 49.5273Z" fill="#AF7044"/>
<path d="M461.471 47.8031C463.611 50.498 467.33 51.3069 470.762 51.5558C475.501 51.9052 480.297 51.5319 484.925 50.4597C484.337 52.4557 483.772 54.2267 482.834 56.0887C484.112 56.912 485.299 57.5247 486.4 58.5729C485.907 56.1844 487.256 53.8438 487.725 51.4505C487.845 50.8426 488.692 50.431 489.305 50.5267C489.918 50.6224 490.444 51.1155 490.583 51.7186C491.55 50.8139 492.383 49.5742 492.431 48.2531C492.479 46.9272 492.086 45.6157 491.454 44.4478C491.09 43.7728 490.631 43.1314 489.999 42.7007C489.367 42.2747 488.53 42.088 487.821 42.3704C486.246 39.0724 482.652 36.6217 478.995 36.5643C475.371 36.5068 472.059 38.4023 468.747 39.8718C465.439 41.3413 461.505 42.4039 458.288 40.7382C458.432 42.514 459.657 44.5052 461.371 45.0126C459.308 44.8786 457.02 46.6448 456.742 48.6935C456.718 48.861 456.953 49.0716 456.972 48.9088C458.432 47.851 459.662 47.6978 461.462 47.7984L461.471 47.8031Z" fill="#1A4072"/>
<path d="M488.024 54.098C488.292 53.6193 488.685 53.1646 489.216 53.0258C489.345 52.9923 489.489 52.9779 489.609 53.0401C489.776 53.1263 489.848 53.3273 489.901 53.5092C490.145 54.3277 490.394 55.2085 490.135 56.0222C489.915 56.7162 488.517 58.0708 487.704 57.4247C486.947 56.8263 487.66 54.7394 488.019 54.098H488.024Z" fill="#96342F"/>
<path d="M474.326 81.9452C474.326 81.9452 484.986 62.7606 490.242 62.7127C495.492 62.6649 496.387 67.9205 496.387 67.9205L474.326 81.9452Z" fill="#3F5F83"/>
<path d="M493.343 63.0811C493.343 63.0811 522.953 128.212 520.311 132.869C517.669 137.527 506.554 146.655 500.341 131.902C494.128 117.15 488.811 66.3503 488.811 66.3503L493.348 63.0811H493.343Z" fill="#1A4072"/>
<path d="M482.295 71.1856L478.634 67.8494C477.739 67.0357 477.667 65.6571 478.471 64.7525L489.322 52.5419C490.141 51.6229 491.548 51.5463 492.457 52.3744L496.119 55.7106C497.014 56.5244 497.086 57.9029 496.282 58.8076L485.431 71.0181C484.612 71.9371 483.205 72.0137 482.295 71.1856Z" fill="#112E4F"/>
<path d="M500.493 79.1592C496.415 69.8445 493.342 63.0811 493.342 63.0811L488.805 66.3503C488.805 66.3503 489.484 72.86 490.648 81.8971C494.094 81.9354 497.54 80.9493 500.493 79.1592Z" fill="#AF7044"/>
<path d="M489.782 68.2191C488.188 66.9363 488.461 64.0117 486.623 63.107C486.125 62.8629 485.551 62.8246 485.044 62.614C483.77 62.0875 483.134 60.5462 483.33 59.1821C483.526 57.8179 484.397 56.6404 485.417 55.7118C486.269 54.9364 487.303 54.271 488.456 54.2136C489.605 54.1561 490.85 54.8933 491.046 56.0277C491.156 56.6882 493.262 61.9152 493.722 63.2506C493.927 63.849 494.138 64.5095 493.908 65.0983C493.784 65.419 493.549 65.6822 493.286 65.9024C492.018 66.9842 489.782 68.2191 488.897 67.1756" fill="#AF7044"/>
<path d="M477.455 79.2495C476.967 79.2495 476.574 79.642 476.574 80.1302V117.691C476.574 118.179 476.967 118.571 477.455 118.571C477.943 118.571 478.336 118.179 478.336 117.691V80.1302C478.336 79.642 477.943 79.2495 477.455 79.2495Z" fill="white"/>
<path d="M472.961 78.4551C472.473 78.4551 472.08 78.8476 472.08 79.3358V116.896C472.08 117.384 472.473 117.777 472.961 117.777C473.449 117.777 473.842 117.384 473.842 116.896V79.3358C473.842 78.8476 473.449 78.4551 472.961 78.4551Z" fill="white"/>
<path d="M186.909 69.6978C185.626 66.7062 182.979 64.5283 180.246 62.7572C172.97 58.0425 164.512 55.3763 155.954 54.0122C152.704 53.4952 149.19 53.1936 146.285 54.7445C143.667 56.1374 141.991 58.8083 140.756 61.5032C138.464 66.5099 137.305 72.3639 139.249 77.519C140.733 81.4584 143.92 84.6079 147.63 86.5944C151.344 88.576 155.557 89.4663 159.75 89.7822C164.555 90.1412 175.981 91.7639 180.428 89.9019C184.984 87.9968 184.281 87.2406 187.617 83.9666C190.451 81.1808 188.751 74.0105 186.909 69.7025V69.6978Z" fill="#326AA6"/>
<path d="M212.518 57.394C212.518 57.394 217.161 64.1527 215.811 64.6266C214.461 65.0957 212.752 65.0717 212.752 65.0717L212.518 57.3988V57.394Z" fill="#D77168"/>
<path d="M194.592 49.9994H211.101C211.101 49.9994 221.732 79.2645 199.154 73.2382L196.775 79.9442C196.775 79.9442 189.231 79.882 186.929 75.2773L189.901 67.2119C189.901 67.2119 182.659 67.4465 182.401 62.0712C182.147 56.6958 184.962 53.3692 187.776 55.93L193.367 52.5698L194.592 49.9946V49.9994Z" fill="#D77168"/>
<path d="M191.761 61.9076C190.947 62.8697 190.253 63.9371 189.702 65.0715C189.257 61.3619 187.85 57.8486 186.457 54.3783C187.41 53.9714 188.487 53.6507 189.53 53.5933C190.865 53.5263 190.53 54.3209 190.617 55.4601C190.703 56.5658 190.842 57.6667 191.033 58.758C191.11 59.184 191.942 61.6778 191.756 61.9028L191.761 61.9076Z" fill="#2D3E51"/>
<path d="M186.995 59.758C186.694 59.2171 186.253 58.7097 185.655 58.5517C185.507 58.5135 185.349 58.4991 185.21 58.5709C185.018 58.6666 184.942 58.8916 184.88 59.0974C184.602 60.0164 184.324 61.0073 184.611 61.9263C184.856 62.7065 186.435 64.2286 187.345 63.5059C188.197 62.831 187.392 60.4807 186.99 59.7628L186.995 59.758Z" fill="#96342F"/>
<path d="M190.155 57.1977C190.638 58.0593 191.61 55.8574 192.342 55.1921C192.452 55.0916 192.567 54.9815 192.61 54.8427C192.654 54.7039 192.625 54.5507 192.596 54.4071L192.338 53.1961C192.338 53.1961 197.512 55.082 200.542 55.082C200.542 55.082 216.323 55.9914 219.994 45.4275C219.994 45.4275 214.394 43.5368 211.575 39.7554C208.756 35.974 192.572 37.0845 190.155 42.5364C190.155 42.5364 181.257 43.7617 182.382 48.6536C183.506 53.5455 184.492 55.5128 184.492 55.5128C184.492 55.5128 189.274 55.642 190.155 57.2024V57.1977Z" fill="#2D3E51"/>
<path d="M292.184 56.5939C291.605 52.7934 289.025 49.505 285.842 47.3462C281.587 44.4599 276.149 43.3734 271.114 44.4073C266.078 45.4412 261.507 48.5812 258.736 52.9082C253.092 61.7203 255.327 73.5862 251.015 83.1211C244.586 97.342 225.861 102.277 218.289 115.928C216.082 119.906 214.962 124.506 215.302 129.044C215.58 132.744 216.815 136.324 218.504 139.622C223.056 148.511 231.371 155.681 241.154 157.667C250.938 159.654 261.966 155.872 267.543 147.587C273.009 139.473 272.688 128.943 272.526 119.164C272.392 111.046 272.511 102.923 272.88 94.8147C273.143 89.0038 273.555 83.0972 275.618 77.6596C277.255 73.3373 280.562 67.9716 285.105 66.2149C287.077 65.4539 288.455 65.8799 290.092 64.2716C291.959 62.4335 292.557 59.0733 292.179 56.5891L292.184 56.5939Z" fill="#0D1D2A"/>
<path d="M296.654 157.684L302.403 76.6094C302.403 76.6094 287.517 85.3305 278.533 84.0381L253.518 91.7254L262.119 159.221C262.119 159.221 242.485 174.466 244.409 193.378C246.328 212.29 242.997 240.186 241.135 246.107C239.278 252.028 231.48 265.172 233.175 290.296L230.461 299.324H259.41C259.41 299.324 258.941 293.207 247.75 291.598C245.472 291.273 243.911 291.077 242.868 290.976C244.615 285.654 257.213 247.414 261.31 239.506C265.058 232.274 276.666 200.759 280.04 191.521C280.567 190.085 282.118 189.309 283.582 189.75C284.841 190.128 285.684 191.305 285.636 192.617C285.315 201.415 284.262 233.724 285.722 242.191C285.722 242.191 274.143 255.235 277.728 291.598L276.23 298.343H304.169C304.169 298.343 299.962 290.603 292.505 289.789H287.191C287.191 289.789 306.792 235.074 308.295 221.513C309.794 207.953 311.651 174.543 296.654 157.684Z" fill="#D77168"/>
<path d="M318.686 20.474C318.433 21.9483 317.719 23.2215 316.848 24.4038C316.623 24.2028 316.384 24.0257 316.13 23.8677C316.709 21.7473 316.705 19.5071 316.097 17.334C315.728 16.0177 313.727 16.7022 314.091 18.0089C314.57 19.7177 314.57 21.4505 314.149 23.1066C313.775 23.0253 313.392 22.9726 313.019 22.9439C312.861 20.6607 312.105 18.4684 310.74 16.5538C309.951 15.4433 308.184 16.6113 308.974 17.7217C310.104 19.3061 310.76 21.1011 310.908 22.9822C310.721 23.0061 310.535 23.0301 310.362 23.0588C310.295 22.92 310.224 22.7907 310.152 22.6519C309.534 21.2399 308.73 19.9092 307.711 18.6886C307.514 18.4541 307.27 18.3344 307.026 18.3009C306.145 18.0329 305.078 18.9662 305.791 19.8278C306.835 21.0867 307.687 22.4317 308.381 23.8533C308.429 23.9634 308.472 24.0783 308.515 24.1884C307.825 26.3663 308.907 31.9235 308.907 31.9235L306.337 28.5059C303.766 25.0883 303.273 27.5151 303.273 27.5151C303.364 30.6263 310.463 38.4715 310.463 38.4715L314.68 38.6391C314.68 38.6391 319.529 30.2243 318.083 26.2323C319.337 24.6336 320.405 22.9247 320.759 20.8713C320.993 19.5311 318.916 19.129 318.681 20.474H318.686Z" fill="#FDC73D"/>
<path d="M298.74 109.307C298.74 109.307 316.885 82.0809 319.212 75.3319C321.538 68.5828 316.349 34.4258 316.349 34.4258L309.28 36.3931V68.8508L287.242 84.771C287.242 84.771 294.728 104.611 298.74 109.302V109.307Z" fill="#D77168"/>
<path d="M299.952 162.051C293.4 165.258 286.435 167.637 279.203 168.417C271.439 169.26 263.326 168.145 256.409 164.607C250.78 170.672 243.184 181.269 244.409 193.375C246.328 212.286 242.997 240.183 241.135 246.104C239.278 252.025 231.48 265.168 233.175 290.293L230.461 299.321H259.41C259.41 299.321 258.941 293.203 247.75 291.595C245.472 291.27 243.911 291.073 242.868 290.973C244.615 285.65 257.213 247.41 261.31 239.503C265.058 232.27 276.666 200.756 280.04 191.517C280.567 190.081 282.118 189.306 283.582 189.746C284.841 190.125 285.684 191.302 285.636 192.614C285.315 201.411 284.262 233.721 285.722 242.188C285.722 242.188 274.143 255.232 277.728 291.595L276.23 298.339H304.169C304.169 298.339 299.962 290.6 292.505 289.786H287.191C287.191 289.786 306.792 235.071 308.295 221.51C309.674 209.041 311.354 179.781 299.952 162.051Z" fill="#112E4F"/>
<path d="M232.908 291.199L230.467 299.327H259.416C259.416 299.327 258.947 293.209 247.756 291.601C246.598 291.434 245.626 291.304 244.817 291.199C243.874 291.486 242.931 291.764 241.964 291.955C238.953 292.549 235.78 292.281 232.908 291.194V291.199Z" fill="#092339"/>
<path d="M277.696 291.772L276.236 298.344H304.176C304.176 298.344 299.968 290.604 292.511 289.79H288.074C286.159 290.508 284.22 291.149 282.21 291.513C280.731 291.781 279.199 291.887 277.701 291.772H277.696Z" fill="#092339"/>
<path d="M279.726 84.1024L275.312 91.4546C275.312 91.4546 284.177 95.7578 285.551 94.2165C286.925 92.6752 279.726 84.0977 279.726 84.0977V84.1024Z" fill="#CAE5F7"/>
<path d="M267.988 74.7006L269.85 86.801C269.85 86.801 277.183 93.0858 278.926 91.4536C280.668 89.8214 278.926 75.7488 278.926 75.7488L267.988 74.6958V74.7006Z" fill="#FDC73D"/>
<path d="M288.928 59.504C288.928 59.504 289.45 58.427 289.182 57.1538L281.275 60.0784C280.619 61.0932 280.04 62.1797 279.389 63.204C277.982 65.425 276.129 67.4306 273.798 68.6512C271.467 69.8718 268.609 70.2355 266.168 69.2543C266.542 68.9479 267.092 68.3927 267.485 67.914C267.169 67.7896 266.499 67.5263 265.072 66.9615C262.373 65.8941 261.664 71.437 262.373 73.2798C263.081 75.1274 266.776 75.8167 266.776 75.8167C268.337 79.6316 275.009 81.5127 284.381 79.3827C293.753 77.2526 288.924 59.504 288.924 59.504H288.928Z" fill="#FDC73D"/>
<path d="M263.995 70.015C263.717 70.1538 263.55 70.4601 263.521 70.7712C263.492 71.0824 263.583 71.3887 263.703 71.6759C263.842 72.0014 264.028 72.3077 264.249 72.5854C264.416 72.796 264.617 72.9922 264.866 73.0927C265.115 73.1933 265.431 73.1645 265.622 72.9731C265.756 72.839 265.809 72.6428 265.842 72.4561C266.015 71.4366 265.617 69.2108 263.995 70.0102V70.015Z" fill="#CB872D"/>
<path d="M268.696 84.1011L278.924 91.4532C278.924 91.4532 270.452 99.4325 267.269 97.896C264.081 96.3595 268.696 84.1011 268.696 84.1011Z" fill="#CAE5F7"/>
<path d="M274.508 123.717C276.226 123.013 278.126 120.677 279.49 119.418C280.524 118.461 281.424 117.365 282.458 116.408C283.492 115.45 284.693 114.608 286.067 114.311C288.882 113.703 290.064 110.606 292.697 109.448C292.893 109.362 293.103 109.285 293.314 109.328C293.491 109.362 293.644 109.477 293.774 109.601C294.779 110.563 294.712 112.267 294.003 113.464C293.29 114.661 292.093 115.469 290.935 116.24C290.179 116.743 289.423 117.245 288.662 117.748C289.25 118.303 289.648 119.758 289.581 120.567C289.514 121.376 289.064 122.142 288.389 122.592C289.111 123.406 289.049 125.158 288.355 126C287.666 126.842 286.57 127.254 285.498 127.426C284.421 127.599 283.324 127.56 282.243 127.685C280.496 127.886 278.509 129.465 277.059 130.461C276.69 130.715 276.595 130.054 276.145 130.078C275.192 130.131 274.627 129.025 274.426 128.092C274.029 126.22 274.01 125.579 274.508 123.731V123.717Z" fill="#FDC73D"/>
<path d="M253.518 91.7256C253.518 91.7256 242.26 96.3781 241.14 101.438C240.02 106.497 237.526 126.605 235.75 130.77C233.979 134.934 229.107 145.503 232.869 148.303C236.636 151.103 260.526 144.665 277.058 130.444L275.311 122.747L247.492 133.402L252.365 121.517L257.903 110.01L253.518 91.7256Z" fill="#A04949"/>
<path d="M140.91 66.0126C140.91 66.0126 116.177 114.51 113.664 139.391C113.042 145.551 116.584 151.376 122.309 153.736L123.008 154.023C126.22 155.349 129.814 155.435 133.088 154.267L134.883 153.626L172.027 77.4094L140.914 66.0078L140.91 66.0126Z" fill="#1A4072"/>
<path d="M221.475 141.682C220.925 140.94 220.063 140.49 219.197 140.17C217.306 139.475 215.224 139.27 213.482 138.264C212.855 137.905 212.232 137.436 211.548 137.288L182.699 118.764C182.699 118.764 211.376 101.125 200.989 80.0405L194.752 80.4617C193.316 80.5575 192 81.3042 191.181 82.4865C185.188 91.1358 160.643 126.872 163.314 128.308C166.262 129.898 199.605 141.682 209.59 142.778C210.332 144.243 211.428 145.688 211.974 147.043C212.213 147.641 212.443 148.259 212.855 148.757C213.266 149.254 213.908 149.618 214.544 149.503C215.334 149.365 215.851 148.58 216.607 148.307C217.263 148.072 218.019 148.259 218.666 147.991C219.79 147.522 219.977 146 220.8 145.1C221.064 144.808 221.399 144.578 221.633 144.262C222.179 143.515 222.026 142.419 221.48 141.677L221.475 141.682Z" fill="#D77168"/>
<path d="M190.525 112.714C198.15 105.788 207.68 93.6296 200.989 80.0405L194.752 80.4617C193.316 80.5575 192 81.3042 191.181 82.4865C188.371 86.5455 181.474 96.5638 175.223 106.204C177.951 108.449 183.398 112.106 190.53 112.714H190.525Z" fill="#112E4F"/>
<path d="M165.723 71.0371C158.974 82.7259 135.706 123.867 129.656 145.741C129.656 145.741 159.84 160.565 177.072 155.401C177.072 155.401 198.966 106.606 208.874 91.3082C210.559 88.7091 209.659 85.2245 206.95 83.7215C198.631 79.1168 182.739 70.8791 171.481 68.4715C169.208 67.9833 166.881 69.0219 165.718 71.0371H165.723Z" fill="#112E4F"/>
<path d="M171.486 68.4732C171.486 68.4732 171.644 100.342 136.377 115.233V125.711C136.377 125.711 187.134 111.615 182.295 71.9244C182.295 71.9244 181.677 64.1605 171.486 68.4732Z" fill="#557490"/>
<path d="M166.861 296.937C166.43 293.893 153.257 288.312 149.002 286.589C148.155 286.244 147.241 286.1 146.331 286.163L142.191 286.464C140.09 286.617 138.295 288.015 137.648 290.021C136.854 292.476 136.002 295.573 136.356 296.602C136.973 298.402 167.368 300.57 166.856 296.937H166.861Z" fill="#1A4072"/>
<path d="M142.157 276.448L140.242 287.658C140.242 287.658 147.719 291.531 151.098 288.965L152.391 278.243L142.162 276.443L142.157 276.448Z" fill="#D77168"/>
<path d="M142.808 178.513L147.384 232.792L138.266 277.839C138.266 277.839 146.652 284.277 157.723 280.438L166.521 239.474L163.113 170.294C163.113 170.294 148.27 168.939 142.813 178.508L142.808 178.513Z" fill="#8FA6D1"/>
<path d="M200.915 300.882C200.456 297.479 185.708 291.342 180.946 289.442C179.993 289.064 178.974 288.906 177.954 288.987L173.306 289.356C170.946 289.542 168.922 291.122 168.18 293.367C167.27 296.119 166.289 299.589 166.677 300.738C167.352 302.744 201.47 304.941 200.915 300.877V300.882Z" fill="#1A4072"/>
<path d="M169.955 279.733L169.395 291.091C169.395 291.091 177.278 294.04 180.327 291.091V280.293L169.955 279.733Z" fill="#D77168"/>
<path d="M129.657 145.741C129.657 145.741 126.757 158.186 128.044 163.346C129.332 168.506 168.338 238.902 168.338 238.902L166.825 283.628C166.825 283.628 178.911 287.835 186.12 283.628L187.738 235.231L169.697 173.728L177.078 155.401C177.078 155.401 146.372 152.079 129.662 145.741H129.657Z" fill="#96C7EB"/>
<path d="M197.999 78.9799C197.999 78.9799 198.851 110.313 186.832 133.016C186.832 133.016 193.026 127.635 197.999 122.485C202.972 117.335 211.483 92.4111 207.371 84.8674C203.494 77.7498 200.847 75.7586 197.999 78.9847V78.9799Z" fill="#557490"/>
<path d="M288.096 219.341H285.176V303.154H288.096V219.341Z" fill="#1A4072"/>
<path d="M328.543 262.711V259.792H244.73V262.711H328.543Z" fill="#1A4072"/>
<path d="M286.351 303.167C262.495 303.167 243.09 283.758 243.09 259.906C243.09 236.055 262.499 216.645 286.351 216.645C310.202 216.645 329.612 236.055 329.612 259.906C329.612 283.758 310.202 303.167 286.351 303.167ZM286.351 222.039C265.472 222.039 248.484 239.027 248.484 259.906C248.484 280.785 265.472 297.773 286.351 297.773C307.23 297.773 324.218 280.785 324.218 259.906C324.218 239.027 307.23 222.039 286.351 222.039Z" fill="#557490"/>
<path d="M286.351 292.412C268.426 292.412 253.846 277.827 253.846 259.907C253.846 241.986 268.43 227.401 286.351 227.401C304.272 227.401 318.857 241.986 318.857 259.907C318.857 277.827 304.272 292.412 286.351 292.412ZM286.351 232.795C271.403 232.795 259.24 244.958 259.24 259.907C259.24 274.855 271.403 287.018 286.351 287.018C301.3 287.018 313.462 274.855 313.462 259.907C313.462 244.958 301.3 232.795 286.351 232.795Z" fill="#3F5A76"/>
<path d="M291.133 243.61L314.209 286.857H346.26V284.411H316.205L293.603 242.523L291.133 243.61Z" fill="#3F5A76"/>
<path d="M305.848 243.61L328.924 286.857H360.975V284.411H330.925L308.318 242.523L305.848 243.61Z" fill="#3F5A76"/>
<path d="M314.969 238.905H254.299C251.6 238.905 249.427 241.184 249.604 243.922C249.767 246.42 251.954 248.311 254.457 248.311H314.969C317.568 248.311 319.675 246.205 319.675 243.606C319.675 241.006 317.568 238.9 314.969 238.9V238.905Z" fill="#557490"/>
<path d="M221.174 238.904C218.575 238.904 216.469 241.01 216.469 243.609C216.469 246.208 218.575 248.314 221.174 248.314H286.549V238.904H221.174Z" fill="#1D3160"/>
<path d="M327.496 157.221C326.218 157.997 324.792 158.298 323.327 158.418C323.327 158.116 323.308 157.819 323.26 157.523C325.237 156.565 326.927 155.091 328.162 153.2C328.913 152.056 327.08 150.999 326.333 152.133C325.357 153.617 324.055 154.756 322.528 155.522C322.341 155.187 322.131 154.866 321.91 154.565C323.528 152.947 324.682 150.932 325.232 148.648C325.548 147.327 323.509 146.762 323.193 148.084C322.739 149.974 321.815 151.65 320.498 152.999C320.36 152.87 320.216 152.75 320.082 152.64C320.144 152.502 320.192 152.358 320.25 152.214C320.91 150.821 321.379 149.338 321.633 147.772C321.681 147.471 321.609 147.212 321.475 147.002C321.097 146.164 319.694 145.973 319.512 147.074C319.249 148.687 318.794 150.214 318.177 151.669C318.124 151.779 318.067 151.884 318.014 151.989C315.918 152.904 312.443 157.37 312.443 157.37L313.328 153.186C314.214 149.003 312.06 150.228 312.06 150.228C309.776 152.339 308.762 159.27 308.762 159.27L311.169 166.134C311.169 166.134 320.699 164.262 322.758 160.548C324.782 160.443 326.774 160.122 328.559 159.04C329.722 158.336 328.66 156.503 327.492 157.212L327.496 157.221Z" fill="#F8AD92"/>
<path d="M262.086 237.255L230.681 143.055H203.043C201.626 143.055 200.482 144.203 200.482 145.616C200.482 147.032 201.631 148.176 203.043 148.176H225.487L256.816 239.04C257.203 240.165 258.261 240.916 259.448 240.916C261.349 240.916 262.689 239.054 262.09 237.25L262.086 237.255Z" fill="#557490"/>
<path d="M282.247 239.897H219.342C215.235 239.897 211.602 237.236 210.362 233.32L187.181 159.956C185.659 155.146 189.253 150.24 194.299 150.24H253.915L282.247 239.897Z" fill="#557490"/>
<path d="M191.319 150.865C187.964 152.329 185.987 156.163 187.184 159.95L210.365 233.313C211.605 237.229 215.238 239.89 219.345 239.89H224.672L199.016 158.695C197.824 154.933 194.914 152.066 191.314 150.86L191.319 150.865Z" fill="#1A4072"/>
<path d="M221.099 239.943L189.695 145.744H162.057C160.64 145.744 159.496 146.892 159.496 148.304C159.496 149.721 160.645 150.865 162.057 150.865H184.501L215.829 241.729C216.217 242.854 217.275 243.605 218.462 243.605C220.362 243.605 221.702 241.743 221.104 239.939L221.099 239.943Z" fill="#557490"/>
<path d="M320.962 211.551H252.15C249.887 211.551 248.053 213.385 248.053 215.648V217.089C248.053 219.352 249.887 221.186 252.15 221.186H320.962C323.225 221.186 325.059 219.352 325.059 217.089V215.648C325.059 213.385 323.225 211.551 320.962 211.551Z" fill="#3F5A76"/>
<path d="M320.24 211.551H311.906C314.568 211.551 316.726 213.71 316.726 216.371C316.726 219.032 314.568 221.191 311.906 221.191H320.24C322.901 221.191 325.06 219.032 325.06 216.371C325.06 213.71 322.901 211.551 320.24 211.551Z" fill="#557490"/>
<path d="M357.209 275.681C357.209 275.681 372.723 262.317 376.294 264.322C379.864 266.333 357.545 292.223 355.534 291.553C353.524 290.883 348.393 282.626 348.393 282.626L357.209 275.681Z" fill="#1D3160"/>
<path d="M365.746 270.484L314.582 221.675C312.917 219.717 310.543 218.497 307.982 218.291C296.714 217.372 265.52 214.892 265.137 215.601C261.021 223.25 261.643 229.477 261.643 229.477L303.123 232.641L354.038 278.08C366.699 278.712 365.751 270.484 365.751 270.484H365.746Z" fill="#1D3160"/>
<path d="M263.58 146.884L281.343 168.835C284.373 172.583 289.902 173.086 293.559 169.946L308.861 156.816L314.208 167.725L290.419 191.246C286.944 194.683 281.3 194.51 278.036 190.872L261.331 172.224C261.331 172.224 255.821 151.393 263.58 146.889V146.884Z" fill="#8FA6D1"/>
<path d="M350.078 273.423L307.444 228.022C303.126 222.939 296.894 219.885 290.231 219.583L274.546 218.88C274.546 218.88 271.281 160.493 263.58 146.885C263.58 146.885 236.373 143.477 214.646 155.194C214.646 155.194 219.342 233.268 227.565 236.791C233.553 239.357 265.949 239.912 283.104 240.022C289.925 240.065 296.401 243.009 300.92 248.121L336.427 284.015C338.49 286.787 342.257 287.663 345.32 286.064C346.679 285.356 348.125 284.413 349.484 283.168C352.27 280.617 352.524 276.304 350.078 273.423Z" fill="#A04949"/>
<path d="M350.079 273.421L307.402 227.963C303.118 222.918 296.943 219.869 290.333 219.534C283.029 219.16 274.537 218.706 274.532 218.615C252.543 218.615 231.985 218.615 221.354 218.72C223.115 228.513 225.192 235.765 227.571 236.785C233.559 239.35 265.955 239.905 283.11 240.016C289.931 240.059 296.407 243.002 300.926 248.114L336.432 284.009C338.495 286.78 342.262 287.656 345.326 286.058C346.685 285.349 348.131 284.406 349.49 283.162C352.276 280.61 352.53 276.298 350.084 273.416L350.079 273.421Z" fill="#1A4072"/>
<path d="M368.272 264.595C365.281 262.91 351.491 270.975 347.106 273.627C346.23 274.158 345.488 274.881 344.938 275.742L342.43 279.672C341.156 281.668 341.195 284.234 342.54 286.182C344.191 288.566 346.364 291.442 347.513 291.825C349.523 292.495 371.843 266.605 368.272 264.595Z" fill="#1D3160"/>
<path d="M249.196 150.806C249.502 149.873 249.602 148.858 249.44 147.829L247.109 131.852L234.348 132.373L236.851 147.997C237.349 151.189 246.194 158.484 246.194 158.484L249.2 150.806H249.196Z" fill="#F8AD92"/>
<path d="M253.743 112.221C253.274 111.853 252.805 111.518 252.35 111.216C249.492 120.445 233.73 116.118 230.341 121.967C229.36 123.987 228.853 125.418 228.853 125.418C225.248 127.352 223.391 129.846 225.689 133.632C227.991 137.418 234.645 135.12 234.645 135.12C237.947 143.176 249.722 145.115 258.64 140.855C267.557 136.595 253.738 112.221 253.738 112.221H253.743Z" fill="#F8AD92"/>
<path d="M230.628 129.889C230.326 129.348 229.886 128.841 229.288 128.683C229.139 128.644 228.981 128.63 228.843 128.702C228.651 128.797 228.575 129.022 228.512 129.228C228.235 130.147 227.957 131.138 228.244 132.057C228.488 132.837 230.068 134.359 230.977 133.637C231.829 132.962 231.025 130.612 230.623 129.894L230.628 129.889Z" fill="#CD7B62"/>
<path d="M230.163 126.041C231.724 126.893 234.141 128.626 234.347 131.239L236.625 130.741C236.625 130.741 235.95 122.618 233.796 121.584C233.796 121.584 253.823 124.198 260.07 115.185C260.07 115.185 256.705 105.449 251.176 103.649C245.648 101.845 231.891 103.046 228.856 112.064C228.856 112.064 222.457 113.505 222.332 118.071C222.208 122.638 224.855 126.117 226.358 127.142L227.756 126.18C228.469 125.687 229.402 125.629 230.163 126.046V126.041Z" fill="#CAE5F7"/>
<path d="M249.625 133.725C251.973 133.725 253.876 131.822 253.876 129.474C253.876 127.127 251.973 125.224 249.625 125.224C247.278 125.224 245.375 127.127 245.375 129.474C245.375 131.822 247.278 133.725 249.625 133.725Z" fill="#FDF1F4"/>
<path d="M258.692 130.77C260.876 130.77 262.646 129 262.646 126.816C262.646 124.633 260.876 122.863 258.692 122.863C256.508 122.863 254.738 124.633 254.738 126.816C254.738 129 256.508 130.77 258.692 130.77Z" fill="#FDF1F4"/>
<path d="M248.482 129.4H233.988L233.447 128.629L248.482 128.758V129.4Z" fill="#FDF1F4"/>
<path d="M251.658 128.785L251.232 128.474C251.276 128.412 252.362 126.947 253.889 126.827C254.712 126.765 255.492 127.095 256.21 127.813L255.837 128.187C255.229 127.579 254.588 127.301 253.932 127.354C252.644 127.454 251.673 128.771 251.663 128.785H251.658Z" fill="#FDF1F4"/>
<path d="M261.305 126.46L259.348 126.605L259.387 127.131L261.344 126.985L261.305 126.46Z" fill="#FDF1F4"/>
<path d="M259.935 134.915C259.327 133.311 257.991 132.129 256.306 131.765C255.976 131.693 255.833 132.206 256.168 132.277C257.661 132.598 258.882 133.622 259.427 135.058C259.547 135.374 260.059 135.235 259.939 134.92L259.935 134.915Z" fill="#CD7B62"/>
<path d="M252.218 121.001C250.117 121.705 247.987 122.25 245.804 122.643C245.469 122.705 245.613 123.212 245.943 123.155C248.121 122.762 250.256 122.212 252.357 121.513C252.678 121.408 252.539 120.896 252.218 121.001Z" fill="#CD7B62"/>
<path d="M252.989 122.149C251.079 122.662 249.155 123.044 247.197 123.313C246.862 123.36 247.005 123.868 247.336 123.825C249.293 123.561 251.222 123.174 253.127 122.662C253.458 122.575 253.319 122.063 252.989 122.149Z" fill="#CD7B62"/>
<path d="M228.993 111.675C228.945 111.805 228.892 111.924 228.844 112.058C228.844 112.058 222.445 113.499 222.32 118.065C222.201 122.632 224.843 126.112 226.346 127.136L227.744 126.174C228.457 125.681 229.39 125.623 230.151 126.04C231.712 126.892 234.129 128.625 234.335 131.238L236.613 130.74C236.613 130.74 235.938 122.617 233.784 121.583C233.784 121.583 235.522 121.808 238.126 121.899C235.603 115.016 231.692 112.546 228.993 111.675Z" fill="#CAE5F7"/>
<path d="M214.645 155.193C214.645 155.193 193.288 208.339 196.882 212.268C200.477 216.198 261.635 214.399 261.635 214.399L261.329 207.506C261.329 207.506 232.447 202.126 218.709 200.618L229.058 180.835C229.058 180.835 232.107 164.005 214.645 155.193Z" fill="#8FA6D1"/>
<path d="M261.332 207.507C261.332 207.507 257.268 206.751 251.467 205.727C252.017 207.488 252.486 209.278 252.946 211.068C253.247 212.241 253.549 213.414 253.851 214.587C258.604 214.491 261.638 214.4 261.638 214.4L261.332 207.507Z" fill="#F8AD92"/>
<path d="M241.926 204.074L243.989 215.596H255.242L252.37 205.099" fill="#CAE5F7"/>
<path d="M245.195 152.325L246.186 158.476L241.926 154.695L245.195 152.325Z" fill="#8AA9B9"/>
<path d="M236.188 145.227L245.196 152.325L241.194 159.275L233.723 149.171L236.188 145.227Z" fill="#CAE5F7"/>
<path d="M247.58 151.919L246.188 158.477L250.433 153.71L247.58 151.919Z" fill="#8AA9B9"/>
<path d="M249.131 145.744L247.58 151.918L251.582 158.873V147.926L249.131 145.744Z" fill="#CAE5F7"/>
<path d="M308.862 156.815L314.209 167.724L310.049 175.469L305.004 160.128L308.862 156.815Z" fill="#CAE5F7"/>
<path d="M269.386 211.552H200.574C198.311 211.552 196.477 213.387 196.477 215.65V217.09C196.477 219.353 198.311 221.188 200.574 221.188H269.386C271.649 221.188 273.483 219.353 273.483 217.09V215.65C273.483 213.387 271.649 211.552 269.386 211.552Z" fill="#3F5A76"/>
<path d="M268.664 211.552H260.33C262.991 211.552 265.15 213.711 265.15 216.372C265.15 219.034 262.991 221.192 260.33 221.192H268.664C271.325 221.192 273.484 219.034 273.484 216.372C273.484 213.711 271.325 211.552 268.664 211.552Z" fill="#557490"/>
<path d="M232.417 219.288L229.291 219.263L228.586 308.975L231.712 309L232.417 219.288Z" fill="#1A4072"/>
<path d="M275.35 266.008L275.375 262.882L185.663 262.178L185.638 265.303L275.35 266.008Z" fill="#1A4072"/>
<path d="M229.864 308.979C204.332 308.778 183.721 287.846 183.917 262.31C184.118 236.778 205.05 216.167 230.587 216.363C256.118 216.564 276.729 237.496 276.533 263.032C276.332 288.564 255.4 309.175 229.864 308.979ZM230.539 222.145C208.19 221.973 189.867 240.009 189.695 262.357C189.522 284.706 207.558 303.029 229.907 303.201C252.255 303.374 270.578 285.338 270.751 262.989C270.923 240.641 252.887 222.318 230.539 222.145Z" fill="#8FA6D1"/>
<path d="M229.954 297.467C210.769 297.318 195.28 281.585 195.433 262.4C195.581 243.216 211.315 227.726 230.499 227.88C249.684 228.028 265.173 243.761 265.02 262.946C264.872 282.131 249.138 297.62 229.954 297.467ZM230.451 233.657C214.45 233.532 201.335 246.447 201.21 262.448C201.086 278.45 214 291.565 230.001 291.689C246.003 291.814 259.118 278.9 259.243 262.898C259.367 246.897 246.453 233.781 230.451 233.657Z" fill="#557490"/>
<path d="M366.672 280.445H353.566C352.911 280.445 352.284 280.742 351.872 281.249L346.257 288.122C345.089 289.554 346.109 291.698 347.952 291.698H360.205C360.809 291.698 361.388 291.449 361.799 291.009L368.261 284.135C369.578 282.738 368.587 280.445 366.667 280.445H366.672Z" fill="#557490"/>
<path d="M349.493 288.116L355.108 281.242C355.524 280.735 356.146 280.438 356.802 280.438H353.566C352.911 280.438 352.284 280.735 351.872 281.242L346.257 288.116C345.089 289.547 346.109 291.691 347.952 291.691H351.187C349.34 291.691 348.32 289.547 349.493 288.116Z" fill="#1A4072"/>
<path d="M276.872 213.982C276.168 211.565 274.636 209.554 272.497 208.229C272.257 208.08 272.028 208.047 271.817 208.08C271.798 208.056 271.783 208.028 271.764 208.008C270.654 206.826 261.334 207.511 261.334 207.511L260.334 211.555C264.292 211.555 263.646 212.876 265.02 213.704C265.264 213.853 265.681 213.934 266.188 213.968C266.652 215.231 266.887 216.557 266.408 217.505C265.795 218.716 267.624 219.793 268.237 218.572C268.935 217.189 268.825 215.518 268.361 213.91C268.61 213.891 268.859 213.862 269.113 213.838C269.577 215.303 269.821 216.792 269.275 218.323C268.821 219.611 270.864 220.161 271.314 218.888C271.951 217.093 271.731 215.303 271.219 213.556C271.377 213.532 271.52 213.508 271.664 213.484C272.205 214.858 272.406 216.342 272.286 217.869C272.181 219.228 274.296 219.219 274.402 217.869C274.593 215.461 274.014 213.187 272.832 211.168C273.77 212.096 274.454 213.24 274.833 214.542C275.211 215.849 277.255 215.294 276.872 213.977V213.982Z" fill="#F8AD92"/>
<path d="M186.782 146.021C186.231 145.04 185.259 144.365 184.264 143.848C182.086 142.723 179.607 142.153 177.658 140.67C176.96 140.138 176.28 139.478 175.476 139.195L143.482 112.419C143.482 112.419 180.798 95.513 171.484 68.4689L163.887 68.0237C162.136 67.9232 160.436 68.6173 159.264 69.924C150.705 79.4493 115.61 118.833 118.611 120.978C121.928 123.347 160.374 142.675 172.264 145.528C172.934 147.414 174.04 149.319 174.49 151.037C174.691 151.798 174.873 152.579 175.289 153.244C175.71 153.909 176.428 154.445 177.213 154.407C178.185 154.359 178.932 153.488 179.884 153.282C180.712 153.1 181.598 153.44 182.416 153.215C183.847 152.823 184.307 151.013 185.437 150.051C185.8 149.74 186.241 149.515 186.571 149.166C187.346 148.352 187.327 147.002 186.782 146.021Z" fill="#D77168"/>
<path d="M153.855 106.314C164.117 99.1198 177.486 85.8993 171.483 68.4713L163.887 68.0262C162.135 67.9257 160.436 68.6197 159.263 69.9265C155.247 74.3923 145.392 85.435 136.369 96.1186C139.318 99.249 145.334 104.495 153.85 106.319L153.855 106.314Z" fill="#112E4F"/>
<path d="M215.939 140.817C214.876 140.64 214.062 141.367 213.809 142.339C213.335 144.129 213.737 145.977 214.694 147.532C215.221 148.384 216.503 148.518 217.279 147.963C218.14 147.35 218.236 146.235 217.71 145.378C217.303 144.718 217.217 143.885 217.461 142.947C217.714 141.98 216.862 140.97 215.939 140.817Z" fill="#D77168"/>
<path d="M217.735 143.832C218.453 143.655 219.223 143.531 219.922 143.78C220.621 144.024 221.2 144.751 221.042 145.474C220.889 146.163 220.616 147.872 219.975 148.174C218.228 149.002 214.676 149.753 212.972 147.666C211.282 145.599 216.466 144.143 217.735 143.832Z" fill="#D77168"/>
<path d="M392.922 126.763C391.338 126.95 389.964 125.624 389.188 124.231C387.446 121.096 387.475 117.051 389.27 113.944C390.959 111.015 393.942 109.091 396.904 107.454C400.317 105.563 404.022 103.864 407.923 103.94C412.078 104.022 416.027 106.19 418.793 109.292C421.56 112.394 423.226 116.352 424.126 120.411C425.71 127.557 433.598 131.87 439.634 136.011C445.795 140.237 451.84 144.885 456.143 150.997C460.446 157.11 462.83 164.936 460.987 172.178C459.144 179.42 452.362 185.561 444.895 185.207C439.084 184.929 433.991 180.985 430.611 176.246C427.232 171.508 425.212 165.965 422.762 160.69C417.539 149.456 410.202 139.208 401.246 130.65C399.37 128.855 395.507 126.466 392.927 126.768L392.922 126.763Z" fill="#D77168"/>
<path d="M402.756 305.881C403.053 303.019 416.541 300.089 420.476 298.371C421.261 298.026 423.027 297.275 423.884 297.313L425.578 295.494C427.56 295.59 429.604 297.715 430.288 299.577C431.121 301.86 431.729 303.88 431.437 304.852C430.925 306.551 402.406 309.299 402.761 305.881H402.756Z" fill="#1A4072"/>
<path d="M440.471 301.89C440.734 299.339 452.743 296.73 456.247 295.203C456.946 294.897 455.745 293.241 456.506 293.279L458.023 290.972C459.789 291.054 464.375 294.62 464.978 296.28C465.72 298.315 466.261 300.11 465.997 300.976C465.538 302.489 440.15 304.935 440.466 301.895L440.471 301.89Z" fill="#1A4072"/>
<path d="M457.914 290.152L416.921 265.908C416.921 265.908 457.014 234.12 457.354 228.228C457.694 222.335 423.513 232.469 423.513 232.469C423.513 232.469 390.815 263.026 391.442 268.602C391.998 273.547 442.97 292.842 454.558 297.169C455.975 297.7 457.574 297.36 458.656 296.298C460.489 294.503 460.12 291.454 457.914 290.142V290.152Z" fill="#F8AD92"/>
<path d="M429.835 255.37C441.586 245.553 457.142 231.897 457.353 228.235C457.693 222.343 423.512 232.476 423.512 232.476C423.512 232.476 414.657 238.785 410.215 243.131C412.23 244.265 417.744 246.041 419.477 247.573C423.057 250.737 427.906 251 429.835 255.375V255.37Z" fill="#112E4F"/>
<path d="M412.034 155.784L408.372 191.401C408.372 191.401 404.433 205.708 404.409 210.815C404.385 215.922 401.154 223.882 401.154 223.882L409.201 226.132L428.677 158.904C428.677 158.904 418.027 154.348 412.039 155.788L412.034 155.784Z" fill="#112E4F"/>
<path d="M404.41 222.472L401.155 227.344C401.155 227.344 394.032 234.61 394.415 235.276C394.798 235.941 396 236.18 396 236.18C396 236.18 403.945 229.723 405.75 229.326C407.554 228.929 410.158 228.249 410.216 227.569C410.273 226.89 407.329 223.376 407.329 223.376L404.41 222.472Z" fill="#F8AD92"/>
<path d="M401.15 223.877L409.197 226.127L410.345 222.164C407.923 220.565 405.621 218.794 403.453 216.875C402.491 220.584 401.155 223.882 401.155 223.882L401.15 223.877Z" fill="#CAE5F7"/>
<path d="M415.346 143.396C415.346 143.396 410.339 164.596 410.545 169.736C410.785 175.763 421.928 176.418 421.928 176.418C421.928 176.418 436.67 201.424 436.072 205.229C435.474 209.034 380.816 242.464 383.492 247.58C386.167 252.697 420.611 299.146 420.611 299.146C420.611 299.146 426.159 299.989 428.677 298.227L405.18 251.228C405.18 251.228 457.291 238.16 462.441 220.814C467.592 203.467 454.63 201.83 450.834 192.793C447.038 183.756 446.272 134.478 415.351 143.396H415.346Z" fill="#1A4072"/>
<path d="M452.556 195.787C446.525 197.409 440.848 200.339 436.009 204.297C436.081 204.68 436.105 204.996 436.066 205.23C435.463 209.036 380.81 242.465 383.486 247.582C386.161 252.699 420.606 299.148 420.606 299.148C420.606 299.148 426.153 299.99 428.671 298.229L405.174 251.229C405.174 251.229 457.285 238.162 462.436 220.816C466.964 205.561 457.491 202.454 452.556 195.782V195.787Z" fill="#112E4F"/>
<path d="M399.422 232.475C389.868 239.497 382.463 245.624 383.492 247.586C386.168 252.703 420.612 299.152 420.612 299.152C420.612 299.152 426.16 299.995 428.677 298.233L405.18 251.234C405.18 251.234 409.541 250.138 415.864 248.166C412.25 241.369 406.391 235.754 399.427 232.475H399.422Z" fill="#F9D0CE"/>
<path d="M420.605 129.3C420.638 123.967 417.714 120.789 415.033 123.441C415.033 123.441 407.657 123.939 410.831 127.352C407.796 128.031 401.564 125.715 398.764 124.365C396.055 123.053 393.709 121.115 391.546 119.023C390.44 122.852 384.074 147.407 404.479 141.046L410.567 147.537C410.567 147.537 418.034 147.163 420.126 142.511L413.391 134.699C413.391 134.699 420.571 134.632 420.605 129.305V129.3Z" fill="#F9D0CE"/>
<path d="M390.597 126.368C390.597 126.368 386.274 133.251 387.634 133.663C388.993 134.075 390.678 133.979 390.678 133.979L390.597 126.368Z" fill="#F9D0CE"/>
<path d="M411.337 129.986C412.185 130.905 412.912 131.934 413.501 133.035C413.788 129.345 415.038 125.808 416.277 122.318C415.315 121.954 414.238 121.677 413.204 121.667C411.878 121.653 412.242 122.428 412.204 123.558C412.166 124.659 412.075 125.755 411.926 126.841C411.869 127.267 411.146 129.771 411.342 129.986H411.337Z" fill="#D77168"/>
<path d="M415.959 127.665C416.237 127.119 416.653 126.593 417.237 126.416C417.381 126.373 417.539 126.354 417.678 126.416C417.869 126.502 417.955 126.722 418.027 126.923C418.338 127.823 418.654 128.79 418.405 129.714C418.195 130.499 416.696 132.069 415.763 131.389C414.892 130.757 415.591 128.397 415.959 127.67V127.665Z" fill="#96342F"/>
<path d="M416.921 137.278C411.952 142.17 407.941 147.985 408.41 147.535C408.41 147.535 409.933 161.689 412.321 160.167C414.71 158.645 420.128 142.51 420.128 142.51L416.926 137.278H416.921Z" fill="#CAE5F7"/>
<path d="M423.484 148.193L398.728 189.41L371.947 174.265L367.936 180.708C367.936 180.708 393.036 205.244 398.728 206.134C403.576 206.895 427.437 181.919 434.388 174.514C435.742 173.073 440.428 168.162 440.763 166.214C441.783 160.212 435.977 143.363 423.484 148.193Z" fill="#1A4072"/>
<path d="M353.638 173.27C354.72 173.974 355.94 174.275 357.194 174.419C357.199 174.161 357.228 173.902 357.281 173.653C355.6 172.772 354.193 171.451 353.178 169.795C352.566 168.79 354.174 167.928 354.782 168.929C355.581 170.236 356.673 171.25 357.965 171.959C358.133 171.676 358.324 171.403 358.525 171.15C357.18 169.709 356.237 167.943 355.83 165.961C355.596 164.812 357.367 164.382 357.606 165.535C357.946 167.177 358.693 168.646 359.789 169.848C359.913 169.743 360.038 169.642 360.157 169.546C360.109 169.422 360.071 169.297 360.023 169.178C359.492 167.957 359.128 166.67 358.956 165.31C358.922 165.047 358.989 164.827 359.114 164.65C359.463 163.936 360.679 163.812 360.803 164.769C360.985 166.167 361.33 167.493 361.823 168.766C361.866 168.862 361.909 168.953 361.957 169.048C363.738 169.896 366.605 173.84 366.605 173.84L365.959 170.212C365.312 166.583 367.136 167.699 367.136 167.699C369.041 169.585 369.721 175.582 369.721 175.582L367.452 181.431C367.452 181.431 359.296 179.55 357.625 176.291C355.883 176.142 354.174 175.812 352.671 174.831C351.69 174.189 352.657 172.643 353.643 173.285L353.638 173.27Z" fill="#F9D0CE"/>
<path d="M376.332 176.741L375.815 188.66L365.48 180.704L369.267 172.744L376.332 176.741Z" fill="#CAE5F7"/>
</svg>
